<?xml version="1.0" encoding="utf-8" standalone="no"?>
<!DOCTYPE svg PUBLIC "-//W3C//DTD SVG 1.1//EN"
  "http://www.w3.org/Graphics/SVG/1.1/DTD/svg11.dtd">
<svg xmlns:xlink="http://www.w3.org/1999/xlink" width="576pt" height="432pt" viewBox="0 0 576 432" xmlns="http://www.w3.org/2000/svg" version="1.1">
 <metadata>
  <rdf:RDF xmlns:dc="http://purl.org/dc/elements/1.1/" xmlns:cc="http://creativecommons.org/ns#" xmlns:rdf="http://www.w3.org/1999/02/22-rdf-syntax-ns#">
   <cc:Work>
    <dc:type rdf:resource="http://purl.org/dc/dcmitype/StillImage"/>
    <dc:date>2025-11-11T12:43:28.242552</dc:date>
    <dc:format>image/svg+xml</dc:format>
    <dc:creator>
     <cc:Agent>
      <dc:title>Matplotlib v3.9.4, https://matplotlib.org/</dc:title>
     </cc:Agent>
    </dc:creator>
   </cc:Work>
  </rdf:RDF>
 </metadata>
 <defs>
  <style type="text/css">*{stroke-linejoin: round; stroke-linecap: butt}</style>
 </defs>
 <g id="figure_1">
  <g id="patch_1">
   <path d="M 0 432 
L 576 432 
L 576 0 
L 0 0 
z
" style="fill: #ffffff"/>
  </g>
  <g id="axes_1">
   <g id="patch_2">
    <path d="M 160.3 391 
L 565.2 391 
L 565.2 27.84 
L 160.3 27.84 
z
" style="fill: #ffffff"/>
   </g>
   <g id="patch_3">
    <path d="M 160.3 374.492727 
L 377.210714 374.492727 
L 377.210714 347.542078 
L 160.3 347.542078 
z
" clip-path="url(#pada743b64b)" style="fill: #2ca02c"/>
   </g>
   <g id="patch_4">
    <path d="M 160.3 340.804416 
L 383.236012 340.804416 
L 383.236012 313.853766 
L 160.3 313.853766 
z
" clip-path="url(#pada743b64b)" style="fill: #2ca02c"/>
   </g>
   <g id="patch_5">
    <path d="M 160.3 307.116104 
L 413.3625 307.116104 
L 413.3625 280.165455 
L 160.3 280.165455 
z
" clip-path="url(#pada743b64b)" style="fill: #2ca02c"/>
   </g>
   <g id="patch_6">
    <path d="M 160.3 273.427792 
L 431.438393 273.427792 
L 431.438393 246.477143 
L 160.3 246.477143 
z
" clip-path="url(#pada743b64b)" style="fill: #2ca02c"/>
   </g>
   <g id="patch_7">
    <path d="M 160.3 239.739481 
L 431.438393 239.739481 
L 431.438393 212.788831 
L 160.3 212.788831 
z
" clip-path="url(#pada743b64b)" style="fill: #2ca02c"/>
   </g>
   <g id="patch_8">
    <path d="M 160.3 206.051169 
L 431.438393 206.051169 
L 431.438393 179.100519 
L 160.3 179.100519 
z
" clip-path="url(#pada743b64b)" style="fill: #2ca02c"/>
   </g>
   <g id="patch_9">
    <path d="M 160.3 172.362857 
L 449.514286 172.362857 
L 449.514286 145.412208 
L 160.3 145.412208 
z
" clip-path="url(#pada743b64b)" style="fill: #2ca02c"/>
   </g>
   <g id="patch_10">
    <path d="M 160.3 138.674545 
L 461.564881 138.674545 
L 461.564881 111.723896 
L 160.3 111.723896 
z
" clip-path="url(#pada743b64b)" style="fill: #2ca02c"/>
   </g>
   <g id="patch_11">
    <path d="M 160.3 104.986234 
L 533.868452 104.986234 
L 533.868452 78.035584 
L 160.3 78.035584 
z
" clip-path="url(#pada743b64b)" style="fill: #2ca02c"/>
   </g>
   <g id="patch_12">
    <path d="M 160.3 71.297922 
L 545.919048 71.297922 
L 545.919048 44.347273 
L 160.3 44.347273 
z
" clip-path="url(#pada743b64b)" style="fill: #2ca02c"/>
   </g>
   <g id="matplotlib.axis_1">
    <g id="xtick_1">
     <g id="line2d_1">
      <defs>
       <path id="m03315aae5f" d="M 0 0 
L 0 3.5 
" style="stroke: #000000; stroke-width: 0.8"/>
      </defs>
      <g>
       <use xlink:href="#m03315aae5f" x="160.3" y="391" style="stroke: #000000; stroke-width: 0.8"/>
      </g>
     </g>
     <g id="text_1">
      <!-- 0 -->
      <g transform="translate(157.11875 405.598437) scale(0.1 -0.1)">
       <defs>
        <path id="DejaVuSans-30" d="M 2034 4250 
Q 1547 4250 1301 3770 
Q 1056 3291 1056 2328 
Q 1056 1369 1301 889 
Q 1547 409 2034 409 
Q 2525 409 2770 889 
Q 3016 1369 3016 2328 
Q 3016 3291 2770 3770 
Q 2525 4250 2034 4250 
z
M 2034 4750 
Q 2819 4750 3233 4129 
Q 3647 3509 3647 2328 
Q 3647 1150 3233 529 
Q 2819 -91 2034 -91 
Q 1250 -91 836 529 
Q 422 1150 422 2328 
Q 422 3509 836 4129 
Q 1250 4750 2034 4750 
z
" transform="scale(0.015625)"/>
       </defs>
       <use xlink:href="#DejaVuSans-30"/>
      </g>
     </g>
    </g>
    <g id="xtick_2">
     <g id="line2d_2">
      <g>
       <use xlink:href="#m03315aae5f" x="220.552976" y="391" style="stroke: #000000; stroke-width: 0.8"/>
      </g>
     </g>
     <g id="text_2">
      <!-- 10 -->
      <g transform="translate(214.190476 405.598437) scale(0.1 -0.1)">
       <defs>
        <path id="DejaVuSans-31" d="M 794 531 
L 1825 531 
L 1825 4091 
L 703 3866 
L 703 4441 
L 1819 4666 
L 2450 4666 
L 2450 531 
L 3481 531 
L 3481 0 
L 794 0 
L 794 531 
z
" transform="scale(0.015625)"/>
       </defs>
       <use xlink:href="#DejaVuSans-31"/>
       <use xlink:href="#DejaVuSans-30" x="63.623047"/>
      </g>
     </g>
    </g>
    <g id="xtick_3">
     <g id="line2d_3">
      <g>
       <use xlink:href="#m03315aae5f" x="280.805952" y="391" style="stroke: #000000; stroke-width: 0.8"/>
      </g>
     </g>
     <g id="text_3">
      <!-- 20 -->
      <g transform="translate(274.443452 405.598437) scale(0.1 -0.1)">
       <defs>
        <path id="DejaVuSans-32" d="M 1228 531 
L 3431 531 
L 3431 0 
L 469 0 
L 469 531 
Q 828 903 1448 1529 
Q 2069 2156 2228 2338 
Q 2531 2678 2651 2914 
Q 2772 3150 2772 3378 
Q 2772 3750 2511 3984 
Q 2250 4219 1831 4219 
Q 1534 4219 1204 4116 
Q 875 4013 500 3803 
L 500 4441 
Q 881 4594 1212 4672 
Q 1544 4750 1819 4750 
Q 2544 4750 2975 4387 
Q 3406 4025 3406 3419 
Q 3406 3131 3298 2873 
Q 3191 2616 2906 2266 
Q 2828 2175 2409 1742 
Q 1991 1309 1228 531 
z
" transform="scale(0.015625)"/>
       </defs>
       <use xlink:href="#DejaVuSans-32"/>
       <use xlink:href="#DejaVuSans-30" x="63.623047"/>
      </g>
     </g>
    </g>
    <g id="xtick_4">
     <g id="line2d_4">
      <g>
       <use xlink:href="#m03315aae5f" x="341.058929" y="391" style="stroke: #000000; stroke-width: 0.8"/>
      </g>
     </g>
     <g id="text_4">
      <!-- 30 -->
      <g transform="translate(334.696429 405.598437) scale(0.1 -0.1)">
       <defs>
        <path id="DejaVuSans-33" d="M 2597 2516 
Q 3050 2419 3304 2112 
Q 3559 1806 3559 1356 
Q 3559 666 3084 287 
Q 2609 -91 1734 -91 
Q 1441 -91 1130 -33 
Q 819 25 488 141 
L 488 750 
Q 750 597 1062 519 
Q 1375 441 1716 441 
Q 2309 441 2620 675 
Q 2931 909 2931 1356 
Q 2931 1769 2642 2001 
Q 2353 2234 1838 2234 
L 1294 2234 
L 1294 2753 
L 1863 2753 
Q 2328 2753 2575 2939 
Q 2822 3125 2822 3475 
Q 2822 3834 2567 4026 
Q 2313 4219 1838 4219 
Q 1578 4219 1281 4162 
Q 984 4106 628 3988 
L 628 4550 
Q 988 4650 1302 4700 
Q 1616 4750 1894 4750 
Q 2613 4750 3031 4423 
Q 3450 4097 3450 3541 
Q 3450 3153 3228 2886 
Q 3006 2619 2597 2516 
z
" transform="scale(0.015625)"/>
       </defs>
       <use xlink:href="#DejaVuSans-33"/>
       <use xlink:href="#DejaVuSans-30" x="63.623047"/>
      </g>
     </g>
    </g>
    <g id="xtick_5">
     <g id="line2d_5">
      <g>
       <use xlink:href="#m03315aae5f" x="401.311905" y="391" style="stroke: #000000; stroke-width: 0.8"/>
      </g>
     </g>
     <g id="text_5">
      <!-- 40 -->
      <g transform="translate(394.949405 405.598437) scale(0.1 -0.1)">
       <defs>
        <path id="DejaVuSans-34" d="M 2419 4116 
L 825 1625 
L 2419 1625 
L 2419 4116 
z
M 2253 4666 
L 3047 4666 
L 3047 1625 
L 3713 1625 
L 3713 1100 
L 3047 1100 
L 3047 0 
L 2419 0 
L 2419 1100 
L 313 1100 
L 313 1709 
L 2253 4666 
z
" transform="scale(0.015625)"/>
       </defs>
       <use xlink:href="#DejaVuSans-34"/>
       <use xlink:href="#DejaVuSans-30" x="63.623047"/>
      </g>
     </g>
    </g>
    <g id="xtick_6">
     <g id="line2d_6">
      <g>
       <use xlink:href="#m03315aae5f" x="461.564881" y="391" style="stroke: #000000; stroke-width: 0.8"/>
      </g>
     </g>
     <g id="text_6">
      <!-- 50 -->
      <g transform="translate(455.202381 405.598437) scale(0.1 -0.1)">
       <defs>
        <path id="DejaVuSans-35" d="M 691 4666 
L 3169 4666 
L 3169 4134 
L 1269 4134 
L 1269 2991 
Q 1406 3038 1543 3061 
Q 1681 3084 1819 3084 
Q 2600 3084 3056 2656 
Q 3513 2228 3513 1497 
Q 3513 744 3044 326 
Q 2575 -91 1722 -91 
Q 1428 -91 1123 -41 
Q 819 9 494 109 
L 494 744 
Q 775 591 1075 516 
Q 1375 441 1709 441 
Q 2250 441 2565 725 
Q 2881 1009 2881 1497 
Q 2881 1984 2565 2268 
Q 2250 2553 1709 2553 
Q 1456 2553 1204 2497 
Q 953 2441 691 2322 
L 691 4666 
z
" transform="scale(0.015625)"/>
       </defs>
       <use xlink:href="#DejaVuSans-35"/>
       <use xlink:href="#DejaVuSans-30" x="63.623047"/>
      </g>
     </g>
    </g>
    <g id="xtick_7">
     <g id="line2d_7">
      <g>
       <use xlink:href="#m03315aae5f" x="521.817857" y="391" style="stroke: #000000; stroke-width: 0.8"/>
      </g>
     </g>
     <g id="text_7">
      <!-- 60 -->
      <g transform="translate(515.455357 405.598437) scale(0.1 -0.1)">
       <defs>
        <path id="DejaVuSans-36" d="M 2113 2584 
Q 1688 2584 1439 2293 
Q 1191 2003 1191 1497 
Q 1191 994 1439 701 
Q 1688 409 2113 409 
Q 2538 409 2786 701 
Q 3034 994 3034 1497 
Q 3034 2003 2786 2293 
Q 2538 2584 2113 2584 
z
M 3366 4563 
L 3366 3988 
Q 3128 4100 2886 4159 
Q 2644 4219 2406 4219 
Q 1781 4219 1451 3797 
Q 1122 3375 1075 2522 
Q 1259 2794 1537 2939 
Q 1816 3084 2150 3084 
Q 2853 3084 3261 2657 
Q 3669 2231 3669 1497 
Q 3669 778 3244 343 
Q 2819 -91 2113 -91 
Q 1303 -91 875 529 
Q 447 1150 447 2328 
Q 447 3434 972 4092 
Q 1497 4750 2381 4750 
Q 2619 4750 2861 4703 
Q 3103 4656 3366 4563 
z
" transform="scale(0.015625)"/>
       </defs>
       <use xlink:href="#DejaVuSans-36"/>
       <use xlink:href="#DejaVuSans-30" x="63.623047"/>
      </g>
     </g>
    </g>
    <g id="text_8">
     <!-- Out-Degree -->
     <g transform="translate(333.684375 419.276563) scale(0.1 -0.1)">
      <defs>
       <path id="DejaVuSans-4f" d="M 2522 4238 
Q 1834 4238 1429 3725 
Q 1025 3213 1025 2328 
Q 1025 1447 1429 934 
Q 1834 422 2522 422 
Q 3209 422 3611 934 
Q 4013 1447 4013 2328 
Q 4013 3213 3611 3725 
Q 3209 4238 2522 4238 
z
M 2522 4750 
Q 3503 4750 4090 4092 
Q 4678 3434 4678 2328 
Q 4678 1225 4090 567 
Q 3503 -91 2522 -91 
Q 1538 -91 948 565 
Q 359 1222 359 2328 
Q 359 3434 948 4092 
Q 1538 4750 2522 4750 
z
" transform="scale(0.015625)"/>
       <path id="DejaVuSans-75" d="M 544 1381 
L 544 3500 
L 1119 3500 
L 1119 1403 
Q 1119 906 1312 657 
Q 1506 409 1894 409 
Q 2359 409 2629 706 
Q 2900 1003 2900 1516 
L 2900 3500 
L 3475 3500 
L 3475 0 
L 2900 0 
L 2900 538 
Q 2691 219 2414 64 
Q 2138 -91 1772 -91 
Q 1169 -91 856 284 
Q 544 659 544 1381 
z
M 1991 3584 
L 1991 3584 
z
" transform="scale(0.015625)"/>
       <path id="DejaVuSans-74" d="M 1172 4494 
L 1172 3500 
L 2356 3500 
L 2356 3053 
L 1172 3053 
L 1172 1153 
Q 1172 725 1289 603 
Q 1406 481 1766 481 
L 2356 481 
L 2356 0 
L 1766 0 
Q 1100 0 847 248 
Q 594 497 594 1153 
L 594 3053 
L 172 3053 
L 172 3500 
L 594 3500 
L 594 4494 
L 1172 4494 
z
" transform="scale(0.015625)"/>
       <path id="DejaVuSans-2d" d="M 313 2009 
L 1997 2009 
L 1997 1497 
L 313 1497 
L 313 2009 
z
" transform="scale(0.015625)"/>
       <path id="DejaVuSans-44" d="M 1259 4147 
L 1259 519 
L 2022 519 
Q 2988 519 3436 956 
Q 3884 1394 3884 2338 
Q 3884 3275 3436 3711 
Q 2988 4147 2022 4147 
L 1259 4147 
z
M 628 4666 
L 1925 4666 
Q 3281 4666 3915 4102 
Q 4550 3538 4550 2338 
Q 4550 1131 3912 565 
Q 3275 0 1925 0 
L 628 0 
L 628 4666 
z
" transform="scale(0.015625)"/>
       <path id="DejaVuSans-65" d="M 3597 1894 
L 3597 1613 
L 953 1613 
Q 991 1019 1311 708 
Q 1631 397 2203 397 
Q 2534 397 2845 478 
Q 3156 559 3463 722 
L 3463 178 
Q 3153 47 2828 -22 
Q 2503 -91 2169 -91 
Q 1331 -91 842 396 
Q 353 884 353 1716 
Q 353 2575 817 3079 
Q 1281 3584 2069 3584 
Q 2775 3584 3186 3129 
Q 3597 2675 3597 1894 
z
M 3022 2063 
Q 3016 2534 2758 2815 
Q 2500 3097 2075 3097 
Q 1594 3097 1305 2825 
Q 1016 2553 972 2059 
L 3022 2063 
z
" transform="scale(0.015625)"/>
       <path id="DejaVuSans-67" d="M 2906 1791 
Q 2906 2416 2648 2759 
Q 2391 3103 1925 3103 
Q 1463 3103 1205 2759 
Q 947 2416 947 1791 
Q 947 1169 1205 825 
Q 1463 481 1925 481 
Q 2391 481 2648 825 
Q 2906 1169 2906 1791 
z
M 3481 434 
Q 3481 -459 3084 -895 
Q 2688 -1331 1869 -1331 
Q 1566 -1331 1297 -1286 
Q 1028 -1241 775 -1147 
L 775 -588 
Q 1028 -725 1275 -790 
Q 1522 -856 1778 -856 
Q 2344 -856 2625 -561 
Q 2906 -266 2906 331 
L 2906 616 
Q 2728 306 2450 153 
Q 2172 0 1784 0 
Q 1141 0 747 490 
Q 353 981 353 1791 
Q 353 2603 747 3093 
Q 1141 3584 1784 3584 
Q 2172 3584 2450 3431 
Q 2728 3278 2906 2969 
L 2906 3500 
L 3481 3500 
L 3481 434 
z
" transform="scale(0.015625)"/>
       <path id="DejaVuSans-72" d="M 2631 2963 
Q 2534 3019 2420 3045 
Q 2306 3072 2169 3072 
Q 1681 3072 1420 2755 
Q 1159 2438 1159 1844 
L 1159 0 
L 581 0 
L 581 3500 
L 1159 3500 
L 1159 2956 
Q 1341 3275 1631 3429 
Q 1922 3584 2338 3584 
Q 2397 3584 2469 3576 
Q 2541 3569 2628 3553 
L 2631 2963 
z
" transform="scale(0.015625)"/>
      </defs>
      <use xlink:href="#DejaVuSans-4f"/>
      <use xlink:href="#DejaVuSans-75" x="78.710938"/>
      <use xlink:href="#DejaVuSans-74" x="142.089844"/>
      <use xlink:href="#DejaVuSans-2d" x="181.298828"/>
      <use xlink:href="#DejaVuSans-44" x="217.382812"/>
      <use xlink:href="#DejaVuSans-65" x="294.384766"/>
      <use xlink:href="#DejaVuSans-67" x="355.908203"/>
      <use xlink:href="#DejaVuSans-72" x="419.384766"/>
      <use xlink:href="#DejaVuSans-65" x="458.248047"/>
      <use xlink:href="#DejaVuSans-65" x="519.771484"/>
     </g>
    </g>
   </g>
   <g id="matplotlib.axis_2">
    <g id="ytick_1">
     <g id="line2d_8">
      <defs>
       <path id="md42c241036" d="M 0 0 
L -3.5 0 
" style="stroke: #000000; stroke-width: 0.8"/>
      </defs>
      <g>
       <use xlink:href="#md42c241036" x="160.3" y="361.017403" style="stroke: #000000; stroke-width: 0.8"/>
      </g>
     </g>
     <g id="text_9">
      <!-- @procore/core-react -->
      <g transform="translate(51.071875 364.816621) scale(0.1 -0.1)">
       <defs>
        <path id="DejaVuSans-40" d="M 2381 1678 
Q 2381 1231 2603 976 
Q 2825 722 3213 722 
Q 3597 722 3817 978 
Q 4038 1234 4038 1678 
Q 4038 2116 3813 2373 
Q 3588 2631 3206 2631 
Q 2828 2631 2604 2375 
Q 2381 2119 2381 1678 
z
M 4084 744 
Q 3897 503 3655 389 
Q 3413 275 3091 275 
Q 2553 275 2217 664 
Q 1881 1053 1881 1678 
Q 1881 2303 2218 2693 
Q 2556 3084 3091 3084 
Q 3413 3084 3656 2967 
Q 3900 2850 4084 2613 
L 4084 3022 
L 4531 3022 
L 4531 722 
Q 4988 791 5245 1139 
Q 5503 1488 5503 2041 
Q 5503 2375 5404 2669 
Q 5306 2963 5106 3213 
Q 4781 3622 4314 3839 
Q 3847 4056 3297 4056 
Q 2913 4056 2559 3954 
Q 2206 3853 1906 3653 
Q 1416 3334 1139 2817 
Q 863 2300 863 1697 
Q 863 1200 1042 765 
Q 1222 331 1563 0 
Q 1891 -325 2322 -495 
Q 2753 -666 3244 -666 
Q 3647 -666 4036 -530 
Q 4425 -394 4750 -141 
L 5031 -488 
Q 4641 -791 4180 -952 
Q 3719 -1113 3244 -1113 
Q 2666 -1113 2153 -908 
Q 1641 -703 1241 -313 
Q 841 78 631 592 
Q 422 1106 422 1697 
Q 422 2266 634 2781 
Q 847 3297 1241 3688 
Q 1644 4084 2172 4295 
Q 2700 4506 3291 4506 
Q 3953 4506 4520 4234 
Q 5088 3963 5472 3463 
Q 5706 3156 5829 2797 
Q 5953 2438 5953 2053 
Q 5953 1231 5456 756 
Q 4959 281 4084 263 
L 4084 744 
z
" transform="scale(0.015625)"/>
        <path id="DejaVuSans-70" d="M 1159 525 
L 1159 -1331 
L 581 -1331 
L 581 3500 
L 1159 3500 
L 1159 2969 
Q 1341 3281 1617 3432 
Q 1894 3584 2278 3584 
Q 2916 3584 3314 3078 
Q 3713 2572 3713 1747 
Q 3713 922 3314 415 
Q 2916 -91 2278 -91 
Q 1894 -91 1617 61 
Q 1341 213 1159 525 
z
M 3116 1747 
Q 3116 2381 2855 2742 
Q 2594 3103 2138 3103 
Q 1681 3103 1420 2742 
Q 1159 2381 1159 1747 
Q 1159 1113 1420 752 
Q 1681 391 2138 391 
Q 2594 391 2855 752 
Q 3116 1113 3116 1747 
z
" transform="scale(0.015625)"/>
        <path id="DejaVuSans-6f" d="M 1959 3097 
Q 1497 3097 1228 2736 
Q 959 2375 959 1747 
Q 959 1119 1226 758 
Q 1494 397 1959 397 
Q 2419 397 2687 759 
Q 2956 1122 2956 1747 
Q 2956 2369 2687 2733 
Q 2419 3097 1959 3097 
z
M 1959 3584 
Q 2709 3584 3137 3096 
Q 3566 2609 3566 1747 
Q 3566 888 3137 398 
Q 2709 -91 1959 -91 
Q 1206 -91 779 398 
Q 353 888 353 1747 
Q 353 2609 779 3096 
Q 1206 3584 1959 3584 
z
" transform="scale(0.015625)"/>
        <path id="DejaVuSans-63" d="M 3122 3366 
L 3122 2828 
Q 2878 2963 2633 3030 
Q 2388 3097 2138 3097 
Q 1578 3097 1268 2742 
Q 959 2388 959 1747 
Q 959 1106 1268 751 
Q 1578 397 2138 397 
Q 2388 397 2633 464 
Q 2878 531 3122 666 
L 3122 134 
Q 2881 22 2623 -34 
Q 2366 -91 2075 -91 
Q 1284 -91 818 406 
Q 353 903 353 1747 
Q 353 2603 823 3093 
Q 1294 3584 2113 3584 
Q 2378 3584 2631 3529 
Q 2884 3475 3122 3366 
z
" transform="scale(0.015625)"/>
        <path id="DejaVuSans-2f" d="M 1625 4666 
L 2156 4666 
L 531 -594 
L 0 -594 
L 1625 4666 
z
" transform="scale(0.015625)"/>
        <path id="DejaVuSans-61" d="M 2194 1759 
Q 1497 1759 1228 1600 
Q 959 1441 959 1056 
Q 959 750 1161 570 
Q 1363 391 1709 391 
Q 2188 391 2477 730 
Q 2766 1069 2766 1631 
L 2766 1759 
L 2194 1759 
z
M 3341 1997 
L 3341 0 
L 2766 0 
L 2766 531 
Q 2569 213 2275 61 
Q 1981 -91 1556 -91 
Q 1019 -91 701 211 
Q 384 513 384 1019 
Q 384 1609 779 1909 
Q 1175 2209 1959 2209 
L 2766 2209 
L 2766 2266 
Q 2766 2663 2505 2880 
Q 2244 3097 1772 3097 
Q 1472 3097 1187 3025 
Q 903 2953 641 2809 
L 641 3341 
Q 956 3463 1253 3523 
Q 1550 3584 1831 3584 
Q 2591 3584 2966 3190 
Q 3341 2797 3341 1997 
z
" transform="scale(0.015625)"/>
       </defs>
       <use xlink:href="#DejaVuSans-40"/>
       <use xlink:href="#DejaVuSans-70" x="100"/>
       <use xlink:href="#DejaVuSans-72" x="163.476562"/>
       <use xlink:href="#DejaVuSans-6f" x="202.339844"/>
       <use xlink:href="#DejaVuSans-63" x="263.521484"/>
       <use xlink:href="#DejaVuSans-6f" x="318.501953"/>
       <use xlink:href="#DejaVuSans-72" x="379.683594"/>
       <use xlink:href="#DejaVuSans-65" x="418.546875"/>
       <use xlink:href="#DejaVuSans-2f" x="480.070312"/>
       <use xlink:href="#DejaVuSans-63" x="513.761719"/>
       <use xlink:href="#DejaVuSans-6f" x="568.742188"/>
       <use xlink:href="#DejaVuSans-72" x="629.923828"/>
       <use xlink:href="#DejaVuSans-65" x="668.787109"/>
       <use xlink:href="#DejaVuSans-2d" x="730.310547"/>
       <use xlink:href="#DejaVuSans-72" x="766.394531"/>
       <use xlink:href="#DejaVuSans-65" x="805.257812"/>
       <use xlink:href="#DejaVuSans-61" x="866.78125"/>
       <use xlink:href="#DejaVuSans-63" x="928.060547"/>
       <use xlink:href="#DejaVuSans-74" x="983.041016"/>
      </g>
     </g>
    </g>
    <g id="ytick_2">
     <g id="line2d_9">
      <g>
       <use xlink:href="#md42c241036" x="160.3" y="327.329091" style="stroke: #000000; stroke-width: 0.8"/>
      </g>
     </g>
     <g id="text_10">
      <!-- react-native-macos -->
      <g transform="translate(56.567188 331.12831) scale(0.1 -0.1)">
       <defs>
        <path id="DejaVuSans-6e" d="M 3513 2113 
L 3513 0 
L 2938 0 
L 2938 2094 
Q 2938 2591 2744 2837 
Q 2550 3084 2163 3084 
Q 1697 3084 1428 2787 
Q 1159 2491 1159 1978 
L 1159 0 
L 581 0 
L 581 3500 
L 1159 3500 
L 1159 2956 
Q 1366 3272 1645 3428 
Q 1925 3584 2291 3584 
Q 2894 3584 3203 3211 
Q 3513 2838 3513 2113 
z
" transform="scale(0.015625)"/>
        <path id="DejaVuSans-69" d="M 603 3500 
L 1178 3500 
L 1178 0 
L 603 0 
L 603 3500 
z
M 603 4863 
L 1178 4863 
L 1178 4134 
L 603 4134 
L 603 4863 
z
" transform="scale(0.015625)"/>
        <path id="DejaVuSans-76" d="M 191 3500 
L 800 3500 
L 1894 563 
L 2988 3500 
L 3597 3500 
L 2284 0 
L 1503 0 
L 191 3500 
z
" transform="scale(0.015625)"/>
        <path id="DejaVuSans-6d" d="M 3328 2828 
Q 3544 3216 3844 3400 
Q 4144 3584 4550 3584 
Q 5097 3584 5394 3201 
Q 5691 2819 5691 2113 
L 5691 0 
L 5113 0 
L 5113 2094 
Q 5113 2597 4934 2840 
Q 4756 3084 4391 3084 
Q 3944 3084 3684 2787 
Q 3425 2491 3425 1978 
L 3425 0 
L 2847 0 
L 2847 2094 
Q 2847 2600 2669 2842 
Q 2491 3084 2119 3084 
Q 1678 3084 1418 2786 
Q 1159 2488 1159 1978 
L 1159 0 
L 581 0 
L 581 3500 
L 1159 3500 
L 1159 2956 
Q 1356 3278 1631 3431 
Q 1906 3584 2284 3584 
Q 2666 3584 2933 3390 
Q 3200 3197 3328 2828 
z
" transform="scale(0.015625)"/>
        <path id="DejaVuSans-73" d="M 2834 3397 
L 2834 2853 
Q 2591 2978 2328 3040 
Q 2066 3103 1784 3103 
Q 1356 3103 1142 2972 
Q 928 2841 928 2578 
Q 928 2378 1081 2264 
Q 1234 2150 1697 2047 
L 1894 2003 
Q 2506 1872 2764 1633 
Q 3022 1394 3022 966 
Q 3022 478 2636 193 
Q 2250 -91 1575 -91 
Q 1294 -91 989 -36 
Q 684 19 347 128 
L 347 722 
Q 666 556 975 473 
Q 1284 391 1588 391 
Q 1994 391 2212 530 
Q 2431 669 2431 922 
Q 2431 1156 2273 1281 
Q 2116 1406 1581 1522 
L 1381 1569 
Q 847 1681 609 1914 
Q 372 2147 372 2553 
Q 372 3047 722 3315 
Q 1072 3584 1716 3584 
Q 2034 3584 2315 3537 
Q 2597 3491 2834 3397 
z
" transform="scale(0.015625)"/>
       </defs>
       <use xlink:href="#DejaVuSans-72"/>
       <use xlink:href="#DejaVuSans-65" x="38.863281"/>
       <use xlink:href="#DejaVuSans-61" x="100.386719"/>
       <use xlink:href="#DejaVuSans-63" x="161.666016"/>
       <use xlink:href="#DejaVuSans-74" x="216.646484"/>
       <use xlink:href="#DejaVuSans-2d" x="255.855469"/>
       <use xlink:href="#DejaVuSans-6e" x="291.939453"/>
       <use xlink:href="#DejaVuSans-61" x="355.318359"/>
       <use xlink:href="#DejaVuSans-74" x="416.597656"/>
       <use xlink:href="#DejaVuSans-69" x="455.806641"/>
       <use xlink:href="#DejaVuSans-76" x="483.589844"/>
       <use xlink:href="#DejaVuSans-65" x="542.769531"/>
       <use xlink:href="#DejaVuSans-2d" x="604.292969"/>
       <use xlink:href="#DejaVuSans-6d" x="640.376953"/>
       <use xlink:href="#DejaVuSans-61" x="737.789062"/>
       <use xlink:href="#DejaVuSans-63" x="799.068359"/>
       <use xlink:href="#DejaVuSans-6f" x="854.048828"/>
       <use xlink:href="#DejaVuSans-73" x="915.230469"/>
      </g>
     </g>
    </g>
    <g id="ytick_3">
     <g id="line2d_10">
      <g>
       <use xlink:href="#md42c241036" x="160.3" y="293.640779" style="stroke: #000000; stroke-width: 0.8"/>
      </g>
     </g>
     <g id="text_11">
      <!-- react-aria -->
      <g transform="translate(104.960938 297.439998) scale(0.1 -0.1)">
       <use xlink:href="#DejaVuSans-72"/>
       <use xlink:href="#DejaVuSans-65" x="38.863281"/>
       <use xlink:href="#DejaVuSans-61" x="100.386719"/>
       <use xlink:href="#DejaVuSans-63" x="161.666016"/>
       <use xlink:href="#DejaVuSans-74" x="216.646484"/>
       <use xlink:href="#DejaVuSans-2d" x="255.855469"/>
       <use xlink:href="#DejaVuSans-61" x="291.939453"/>
       <use xlink:href="#DejaVuSans-72" x="353.21875"/>
       <use xlink:href="#DejaVuSans-69" x="394.332031"/>
       <use xlink:href="#DejaVuSans-61" x="422.115234"/>
      </g>
     </g>
    </g>
    <g id="ytick_4">
     <g id="line2d_11">
      <g>
       <use xlink:href="#md42c241036" x="160.3" y="259.952468" style="stroke: #000000; stroke-width: 0.8"/>
      </g>
     </g>
     <g id="text_12">
      <!-- react-native-windows -->
      <g transform="translate(46.114063 263.751686) scale(0.1 -0.1)">
       <defs>
        <path id="DejaVuSans-77" d="M 269 3500 
L 844 3500 
L 1563 769 
L 2278 3500 
L 2956 3500 
L 3675 769 
L 4391 3500 
L 4966 3500 
L 4050 0 
L 3372 0 
L 2619 2869 
L 1863 0 
L 1184 0 
L 269 3500 
z
" transform="scale(0.015625)"/>
        <path id="DejaVuSans-64" d="M 2906 2969 
L 2906 4863 
L 3481 4863 
L 3481 0 
L 2906 0 
L 2906 525 
Q 2725 213 2448 61 
Q 2172 -91 1784 -91 
Q 1150 -91 751 415 
Q 353 922 353 1747 
Q 353 2572 751 3078 
Q 1150 3584 1784 3584 
Q 2172 3584 2448 3432 
Q 2725 3281 2906 2969 
z
M 947 1747 
Q 947 1113 1208 752 
Q 1469 391 1925 391 
Q 2381 391 2643 752 
Q 2906 1113 2906 1747 
Q 2906 2381 2643 2742 
Q 2381 3103 1925 3103 
Q 1469 3103 1208 2742 
Q 947 2381 947 1747 
z
" transform="scale(0.015625)"/>
       </defs>
       <use xlink:href="#DejaVuSans-72"/>
       <use xlink:href="#DejaVuSans-65" x="38.863281"/>
       <use xlink:href="#DejaVuSans-61" x="100.386719"/>
       <use xlink:href="#DejaVuSans-63" x="161.666016"/>
       <use xlink:href="#DejaVuSans-74" x="216.646484"/>
       <use xlink:href="#DejaVuSans-2d" x="255.855469"/>
       <use xlink:href="#DejaVuSans-6e" x="291.939453"/>
       <use xlink:href="#DejaVuSans-61" x="355.318359"/>
       <use xlink:href="#DejaVuSans-74" x="416.597656"/>
       <use xlink:href="#DejaVuSans-69" x="455.806641"/>
       <use xlink:href="#DejaVuSans-76" x="483.589844"/>
       <use xlink:href="#DejaVuSans-65" x="542.769531"/>
       <use xlink:href="#DejaVuSans-2d" x="604.292969"/>
       <use xlink:href="#DejaVuSans-77" x="640.376953"/>
       <use xlink:href="#DejaVuSans-69" x="722.164062"/>
       <use xlink:href="#DejaVuSans-6e" x="749.947266"/>
       <use xlink:href="#DejaVuSans-64" x="813.326172"/>
       <use xlink:href="#DejaVuSans-6f" x="876.802734"/>
       <use xlink:href="#DejaVuSans-77" x="937.984375"/>
       <use xlink:href="#DejaVuSans-73" x="1019.771484"/>
      </g>
     </g>
    </g>
    <g id="ytick_5">
     <g id="line2d_12">
      <g>
       <use xlink:href="#md42c241036" x="160.3" y="226.264156" style="stroke: #000000; stroke-width: 0.8"/>
      </g>
     </g>
     <g id="text_13">
      <!-- wix-style-react -->
      <g transform="translate(79.64375 230.063375) scale(0.1 -0.1)">
       <defs>
        <path id="DejaVuSans-78" d="M 3513 3500 
L 2247 1797 
L 3578 0 
L 2900 0 
L 1881 1375 
L 863 0 
L 184 0 
L 1544 1831 
L 300 3500 
L 978 3500 
L 1906 2253 
L 2834 3500 
L 3513 3500 
z
" transform="scale(0.015625)"/>
        <path id="DejaVuSans-79" d="M 2059 -325 
Q 1816 -950 1584 -1140 
Q 1353 -1331 966 -1331 
L 506 -1331 
L 506 -850 
L 844 -850 
Q 1081 -850 1212 -737 
Q 1344 -625 1503 -206 
L 1606 56 
L 191 3500 
L 800 3500 
L 1894 763 
L 2988 3500 
L 3597 3500 
L 2059 -325 
z
" transform="scale(0.015625)"/>
        <path id="DejaVuSans-6c" d="M 603 4863 
L 1178 4863 
L 1178 0 
L 603 0 
L 603 4863 
z
" transform="scale(0.015625)"/>
       </defs>
       <use xlink:href="#DejaVuSans-77"/>
       <use xlink:href="#DejaVuSans-69" x="81.787109"/>
       <use xlink:href="#DejaVuSans-78" x="109.570312"/>
       <use xlink:href="#DejaVuSans-2d" x="168.75"/>
       <use xlink:href="#DejaVuSans-73" x="204.833984"/>
       <use xlink:href="#DejaVuSans-74" x="256.933594"/>
       <use xlink:href="#DejaVuSans-79" x="296.142578"/>
       <use xlink:href="#DejaVuSans-6c" x="355.322266"/>
       <use xlink:href="#DejaVuSans-65" x="383.105469"/>
       <use xlink:href="#DejaVuSans-2d" x="444.628906"/>
       <use xlink:href="#DejaVuSans-72" x="480.712891"/>
       <use xlink:href="#DejaVuSans-65" x="519.576172"/>
       <use xlink:href="#DejaVuSans-61" x="581.099609"/>
       <use xlink:href="#DejaVuSans-63" x="642.378906"/>
       <use xlink:href="#DejaVuSans-74" x="697.359375"/>
      </g>
     </g>
    </g>
    <g id="ytick_6">
     <g id="line2d_13">
      <g>
       <use xlink:href="#md42c241036" x="160.3" y="192.575844" style="stroke: #000000; stroke-width: 0.8"/>
      </g>
     </g>
     <g id="text_14">
      <!-- @react-native/babel-preset -->
      <g transform="translate(16.467187 196.375063) scale(0.1 -0.1)">
       <defs>
        <path id="DejaVuSans-62" d="M 3116 1747 
Q 3116 2381 2855 2742 
Q 2594 3103 2138 3103 
Q 1681 3103 1420 2742 
Q 1159 2381 1159 1747 
Q 1159 1113 1420 752 
Q 1681 391 2138 391 
Q 2594 391 2855 752 
Q 3116 1113 3116 1747 
z
M 1159 2969 
Q 1341 3281 1617 3432 
Q 1894 3584 2278 3584 
Q 2916 3584 3314 3078 
Q 3713 2572 3713 1747 
Q 3713 922 3314 415 
Q 2916 -91 2278 -91 
Q 1894 -91 1617 61 
Q 1341 213 1159 525 
L 1159 0 
L 581 0 
L 581 4863 
L 1159 4863 
L 1159 2969 
z
" transform="scale(0.015625)"/>
       </defs>
       <use xlink:href="#DejaVuSans-40"/>
       <use xlink:href="#DejaVuSans-72" x="100"/>
       <use xlink:href="#DejaVuSans-65" x="138.863281"/>
       <use xlink:href="#DejaVuSans-61" x="200.386719"/>
       <use xlink:href="#DejaVuSans-63" x="261.666016"/>
       <use xlink:href="#DejaVuSans-74" x="316.646484"/>
       <use xlink:href="#DejaVuSans-2d" x="355.855469"/>
       <use xlink:href="#DejaVuSans-6e" x="391.939453"/>
       <use xlink:href="#DejaVuSans-61" x="455.318359"/>
       <use xlink:href="#DejaVuSans-74" x="516.597656"/>
       <use xlink:href="#DejaVuSans-69" x="555.806641"/>
       <use xlink:href="#DejaVuSans-76" x="583.589844"/>
       <use xlink:href="#DejaVuSans-65" x="642.769531"/>
       <use xlink:href="#DejaVuSans-2f" x="704.292969"/>
       <use xlink:href="#DejaVuSans-62" x="737.984375"/>
       <use xlink:href="#DejaVuSans-61" x="801.460938"/>
       <use xlink:href="#DejaVuSans-62" x="862.740234"/>
       <use xlink:href="#DejaVuSans-65" x="926.216797"/>
       <use xlink:href="#DejaVuSans-6c" x="987.740234"/>
       <use xlink:href="#DejaVuSans-2d" x="1015.523438"/>
       <use xlink:href="#DejaVuSans-70" x="1051.607422"/>
       <use xlink:href="#DejaVuSans-72" x="1115.083984"/>
       <use xlink:href="#DejaVuSans-65" x="1153.947266"/>
       <use xlink:href="#DejaVuSans-73" x="1215.470703"/>
       <use xlink:href="#DejaVuSans-65" x="1267.570312"/>
       <use xlink:href="#DejaVuSans-74" x="1329.09375"/>
      </g>
     </g>
    </g>
    <g id="ytick_7">
     <g id="line2d_14">
      <g>
       <use xlink:href="#md42c241036" x="160.3" y="158.887532" style="stroke: #000000; stroke-width: 0.8"/>
      </g>
     </g>
     <g id="text_15">
      <!-- react-scripts -->
      <g transform="translate(91.03125 162.686751) scale(0.1 -0.1)">
       <use xlink:href="#DejaVuSans-72"/>
       <use xlink:href="#DejaVuSans-65" x="38.863281"/>
       <use xlink:href="#DejaVuSans-61" x="100.386719"/>
       <use xlink:href="#DejaVuSans-63" x="161.666016"/>
       <use xlink:href="#DejaVuSans-74" x="216.646484"/>
       <use xlink:href="#DejaVuSans-2d" x="255.855469"/>
       <use xlink:href="#DejaVuSans-73" x="291.939453"/>
       <use xlink:href="#DejaVuSans-63" x="344.039062"/>
       <use xlink:href="#DejaVuSans-72" x="399.019531"/>
       <use xlink:href="#DejaVuSans-69" x="440.132812"/>
       <use xlink:href="#DejaVuSans-70" x="467.916016"/>
       <use xlink:href="#DejaVuSans-74" x="531.392578"/>
       <use xlink:href="#DejaVuSans-73" x="570.601562"/>
      </g>
     </g>
    </g>
    <g id="ytick_8">
     <g id="line2d_15">
      <g>
       <use xlink:href="#md42c241036" x="160.3" y="125.199221" style="stroke: #000000; stroke-width: 0.8"/>
      </g>
     </g>
     <g id="text_16">
      <!-- @heroui/react -->
      <g transform="translate(82.734375 128.99844) scale(0.1 -0.1)">
       <defs>
        <path id="DejaVuSans-68" d="M 3513 2113 
L 3513 0 
L 2938 0 
L 2938 2094 
Q 2938 2591 2744 2837 
Q 2550 3084 2163 3084 
Q 1697 3084 1428 2787 
Q 1159 2491 1159 1978 
L 1159 0 
L 581 0 
L 581 4863 
L 1159 4863 
L 1159 2956 
Q 1366 3272 1645 3428 
Q 1925 3584 2291 3584 
Q 2894 3584 3203 3211 
Q 3513 2838 3513 2113 
z
" transform="scale(0.015625)"/>
       </defs>
       <use xlink:href="#DejaVuSans-40"/>
       <use xlink:href="#DejaVuSans-68" x="100"/>
       <use xlink:href="#DejaVuSans-65" x="163.378906"/>
       <use xlink:href="#DejaVuSans-72" x="224.902344"/>
       <use xlink:href="#DejaVuSans-6f" x="263.765625"/>
       <use xlink:href="#DejaVuSans-75" x="324.947266"/>
       <use xlink:href="#DejaVuSans-69" x="388.326172"/>
       <use xlink:href="#DejaVuSans-2f" x="416.109375"/>
       <use xlink:href="#DejaVuSans-72" x="449.800781"/>
       <use xlink:href="#DejaVuSans-65" x="488.664062"/>
       <use xlink:href="#DejaVuSans-61" x="550.1875"/>
       <use xlink:href="#DejaVuSans-63" x="611.466797"/>
       <use xlink:href="#DejaVuSans-74" x="666.447266"/>
      </g>
     </g>
    </g>
    <g id="ytick_9">
     <g id="line2d_16">
      <g>
       <use xlink:href="#md42c241036" x="160.3" y="91.510909" style="stroke: #000000; stroke-width: 0.8"/>
      </g>
     </g>
     <g id="text_17">
      <!-- @fluentui/react-components -->
      <g transform="translate(10.792188 95.310128) scale(0.1 -0.1)">
       <defs>
        <path id="DejaVuSans-66" d="M 2375 4863 
L 2375 4384 
L 1825 4384 
Q 1516 4384 1395 4259 
Q 1275 4134 1275 3809 
L 1275 3500 
L 2222 3500 
L 2222 3053 
L 1275 3053 
L 1275 0 
L 697 0 
L 697 3053 
L 147 3053 
L 147 3500 
L 697 3500 
L 697 3744 
Q 697 4328 969 4595 
Q 1241 4863 1831 4863 
L 2375 4863 
z
" transform="scale(0.015625)"/>
       </defs>
       <use xlink:href="#DejaVuSans-40"/>
       <use xlink:href="#DejaVuSans-66" x="100"/>
       <use xlink:href="#DejaVuSans-6c" x="135.205078"/>
       <use xlink:href="#DejaVuSans-75" x="162.988281"/>
       <use xlink:href="#DejaVuSans-65" x="226.367188"/>
       <use xlink:href="#DejaVuSans-6e" x="287.890625"/>
       <use xlink:href="#DejaVuSans-74" x="351.269531"/>
       <use xlink:href="#DejaVuSans-75" x="390.478516"/>
       <use xlink:href="#DejaVuSans-69" x="453.857422"/>
       <use xlink:href="#DejaVuSans-2f" x="481.640625"/>
       <use xlink:href="#DejaVuSans-72" x="515.332031"/>
       <use xlink:href="#DejaVuSans-65" x="554.195312"/>
       <use xlink:href="#DejaVuSans-61" x="615.71875"/>
       <use xlink:href="#DejaVuSans-63" x="676.998047"/>
       <use xlink:href="#DejaVuSans-74" x="731.978516"/>
       <use xlink:href="#DejaVuSans-2d" x="771.1875"/>
       <use xlink:href="#DejaVuSans-63" x="807.271484"/>
       <use xlink:href="#DejaVuSans-6f" x="862.251953"/>
       <use xlink:href="#DejaVuSans-6d" x="923.433594"/>
       <use xlink:href="#DejaVuSans-70" x="1020.845703"/>
       <use xlink:href="#DejaVuSans-6f" x="1084.322266"/>
       <use xlink:href="#DejaVuSans-6e" x="1145.503906"/>
       <use xlink:href="#DejaVuSans-65" x="1208.882812"/>
       <use xlink:href="#DejaVuSans-6e" x="1270.40625"/>
       <use xlink:href="#DejaVuSans-74" x="1333.785156"/>
       <use xlink:href="#DejaVuSans-73" x="1372.994141"/>
      </g>
     </g>
    </g>
    <g id="ytick_10">
     <g id="line2d_17">
      <g>
       <use xlink:href="#md42c241036" x="160.3" y="57.822597" style="stroke: #000000; stroke-width: 0.8"/>
      </g>
     </g>
     <g id="text_18">
      <!-- react-styleguidist -->
      <g transform="translate(66.40625 61.621816) scale(0.1 -0.1)">
       <use xlink:href="#DejaVuSans-72"/>
       <use xlink:href="#DejaVuSans-65" x="38.863281"/>
       <use xlink:href="#DejaVuSans-61" x="100.386719"/>
       <use xlink:href="#DejaVuSans-63" x="161.666016"/>
       <use xlink:href="#DejaVuSans-74" x="216.646484"/>
       <use xlink:href="#DejaVuSans-2d" x="255.855469"/>
       <use xlink:href="#DejaVuSans-73" x="291.939453"/>
       <use xlink:href="#DejaVuSans-74" x="344.039062"/>
       <use xlink:href="#DejaVuSans-79" x="383.248047"/>
       <use xlink:href="#DejaVuSans-6c" x="442.427734"/>
       <use xlink:href="#DejaVuSans-65" x="470.210938"/>
       <use xlink:href="#DejaVuSans-67" x="531.734375"/>
       <use xlink:href="#DejaVuSans-75" x="595.210938"/>
       <use xlink:href="#DejaVuSans-69" x="658.589844"/>
       <use xlink:href="#DejaVuSans-64" x="686.373047"/>
       <use xlink:href="#DejaVuSans-69" x="749.849609"/>
       <use xlink:href="#DejaVuSans-73" x="777.632812"/>
       <use xlink:href="#DejaVuSans-74" x="829.732422"/>
      </g>
     </g>
    </g>
   </g>
   <g id="patch_13">
    <path d="M 160.3 391 
L 160.3 27.84 
" style="fill: none; stroke: #000000; stroke-width: 0.8; stroke-linejoin: miter; stroke-linecap: square"/>
   </g>
   <g id="patch_14">
    <path d="M 565.2 391 
L 565.2 27.84 
" style="fill: none; stroke: #000000; stroke-width: 0.8; stroke-linejoin: miter; stroke-linecap: square"/>
   </g>
   <g id="patch_15">
    <path d="M 160.3 391 
L 565.2 391 
" style="fill: none; stroke: #000000; stroke-width: 0.8; stroke-linejoin: miter; stroke-linecap: square"/>
   </g>
   <g id="patch_16">
    <path d="M 160.3 27.84 
L 565.2 27.84 
" style="fill: none; stroke: #000000; stroke-width: 0.8; stroke-linejoin: miter; stroke-linecap: square"/>
   </g>
   <g id="text_19">
    <!-- Out-Degree İlk 10 -->
    <g transform="translate(309.51125 21.84) scale(0.12 -0.12)">
     <defs>
      <path id="DejaVuSans-20" transform="scale(0.015625)"/>
      <path id="DejaVuSans-130" d="M 628 4666 
L 1259 4666 
L 1259 0 
L 628 0 
L 628 4666 
z
M 625 5836 
L 1263 5836 
L 1263 5196 
L 625 5196 
L 625 5836 
z
" transform="scale(0.015625)"/>
      <path id="DejaVuSans-6b" d="M 581 4863 
L 1159 4863 
L 1159 1991 
L 2875 3500 
L 3609 3500 
L 1753 1863 
L 3688 0 
L 2938 0 
L 1159 1709 
L 1159 0 
L 581 0 
L 581 4863 
z
" transform="scale(0.015625)"/>
     </defs>
     <use xlink:href="#DejaVuSans-4f"/>
     <use xlink:href="#DejaVuSans-75" x="78.710938"/>
     <use xlink:href="#DejaVuSans-74" x="142.089844"/>
     <use xlink:href="#DejaVuSans-2d" x="181.298828"/>
     <use xlink:href="#DejaVuSans-44" x="217.382812"/>
     <use xlink:href="#DejaVuSans-65" x="294.384766"/>
     <use xlink:href="#DejaVuSans-67" x="355.908203"/>
     <use xlink:href="#DejaVuSans-72" x="419.384766"/>
     <use xlink:href="#DejaVuSans-65" x="458.248047"/>
     <use xlink:href="#DejaVuSans-65" x="519.771484"/>
     <use xlink:href="#DejaVuSans-20" x="581.294922"/>
     <use xlink:href="#DejaVuSans-130" x="613.082031"/>
     <use xlink:href="#DejaVuSans-6c" x="642.574219"/>
     <use xlink:href="#DejaVuSans-6b" x="670.357422"/>
     <use xlink:href="#DejaVuSans-20" x="728.267578"/>
     <use xlink:href="#DejaVuSans-31" x="760.054688"/>
     <use xlink:href="#DejaVuSans-30" x="823.677734"/>
    </g>
   </g>
  </g>
 </g>
 <defs>
  <clipPath id="pada743b64b">
   <rect x="160.3" y="27.84" width="404.9" height="363.16"/>
  </clipPath>
 </defs>
</svg>
