<?xml version="1.0" encoding="utf-8" standalone="no"?>
<!DOCTYPE svg PUBLIC "-//W3C//DTD SVG 1.1//EN"
  "http://www.w3.org/Graphics/SVG/1.1/DTD/svg11.dtd">
<svg xmlns:xlink="http://www.w3.org/1999/xlink" width="576pt" height="432pt" viewBox="0 0 576 432" xmlns="http://www.w3.org/2000/svg" version="1.1">
 <metadata>
  <rdf:RDF xmlns:dc="http://purl.org/dc/elements/1.1/" xmlns:cc="http://creativecommons.org/ns#" xmlns:rdf="http://www.w3.org/1999/02/22-rdf-syntax-ns#">
   <cc:Work>
    <dc:type rdf:resource="http://purl.org/dc/dcmitype/StillImage"/>
    <dc:date>2025-11-11T12:43:28.601648</dc:date>
    <dc:format>image/svg+xml</dc:format>
    <dc:creator>
     <cc:Agent>
      <dc:title>Matplotlib v3.9.4, https://matplotlib.org/</dc:title>
     </cc:Agent>
    </dc:creator>
   </cc:Work>
  </rdf:RDF>
 </metadata>
 <defs>
  <style type="text/css">*{stroke-linejoin: round; stroke-linecap: butt}</style>
 </defs>
 <g id="figure_1">
  <g id="patch_1">
   <path d="M 0 432 
L 576 432 
L 576 0 
L 0 0 
z
" style="fill: #ffffff"/>
  </g>
  <g id="axes_1">
   <g id="patch_2">
    <path d="M 197.14 391 
L 565.2 391 
L 565.2 25.92 
L 197.14 25.92 
z
" style="fill: #ffffff"/>
   </g>
   <g id="patch_3">
    <path d="M 197.14 374.405455 
L 262.865 374.405455 
L 262.865 347.312319 
L 197.14 347.312319 
z
" clip-path="url(#pa7b47a47b6)" style="fill: #ff7f0e"/>
   </g>
   <g id="patch_4">
    <path d="M 197.14 340.539035 
L 273.819167 340.539035 
L 273.819167 313.4459 
L 197.14 313.4459 
z
" clip-path="url(#pa7b47a47b6)" style="fill: #ff7f0e"/>
   </g>
   <g id="patch_5">
    <path d="M 197.14 306.672616 
L 284.773333 306.672616 
L 284.773333 279.579481 
L 197.14 279.579481 
z
" clip-path="url(#pa7b47a47b6)" style="fill: #ff7f0e"/>
   </g>
   <g id="patch_6">
    <path d="M 197.14 272.806197 
L 295.7275 272.806197 
L 295.7275 245.713061 
L 197.14 245.713061 
z
" clip-path="url(#pa7b47a47b6)" style="fill: #ff7f0e"/>
   </g>
   <g id="patch_7">
    <path d="M 197.14 238.939777 
L 306.681667 238.939777 
L 306.681667 211.846642 
L 197.14 211.846642 
z
" clip-path="url(#pa7b47a47b6)" style="fill: #ff7f0e"/>
   </g>
   <g id="patch_8">
    <path d="M 197.14 205.073358 
L 328.59 205.073358 
L 328.59 177.980223 
L 197.14 177.980223 
z
" clip-path="url(#pa7b47a47b6)" style="fill: #ff7f0e"/>
   </g>
   <g id="patch_9">
    <path d="M 197.14 171.206939 
L 361.4525 171.206939 
L 361.4525 144.113803 
L 197.14 144.113803 
z
" clip-path="url(#pa7b47a47b6)" style="fill: #ff7f0e"/>
   </g>
   <g id="patch_10">
    <path d="M 197.14 137.340519 
L 399.792083 137.340519 
L 399.792083 110.247384 
L 197.14 110.247384 
z
" clip-path="url(#pa7b47a47b6)" style="fill: #ff7f0e"/>
   </g>
   <g id="patch_11">
    <path d="M 197.14 103.4741 
L 416.223333 103.4741 
L 416.223333 76.380965 
L 197.14 76.380965 
z
" clip-path="url(#pa7b47a47b6)" style="fill: #ff7f0e"/>
   </g>
   <g id="patch_12">
    <path d="M 197.14 69.607681 
L 547.673333 69.607681 
L 547.673333 42.514545 
L 197.14 42.514545 
z
" clip-path="url(#pa7b47a47b6)" style="fill: #ff7f0e"/>
   </g>
   <g id="matplotlib.axis_1">
    <g id="xtick_1">
     <g id="line2d_1">
      <defs>
       <path id="m4d366e0fe0" d="M 0 0 
L 0 3.5 
" style="stroke: #000000; stroke-width: 0.8"/>
      </defs>
      <g>
       <use xlink:href="#m4d366e0fe0" x="197.14" y="391" style="stroke: #000000; stroke-width: 0.8"/>
      </g>
     </g>
     <g id="text_1">
      <!-- 0 -->
      <g transform="translate(193.95875 405.598437) scale(0.1 -0.1)">
       <defs>
        <path id="DejaVuSans-30" d="M 2034 4250 
Q 1547 4250 1301 3770 
Q 1056 3291 1056 2328 
Q 1056 1369 1301 889 
Q 1547 409 2034 409 
Q 2525 409 2770 889 
Q 3016 1369 3016 2328 
Q 3016 3291 2770 3770 
Q 2525 4250 2034 4250 
z
M 2034 4750 
Q 2819 4750 3233 4129 
Q 3647 3509 3647 2328 
Q 3647 1150 3233 529 
Q 2819 -91 2034 -91 
Q 1250 -91 836 529 
Q 422 1150 422 2328 
Q 422 3509 836 4129 
Q 1250 4750 2034 4750 
z
" transform="scale(0.015625)"/>
       </defs>
       <use xlink:href="#DejaVuSans-30"/>
      </g>
     </g>
    </g>
    <g id="xtick_2">
     <g id="line2d_2">
      <g>
       <use xlink:href="#m4d366e0fe0" x="246.674761" y="391" style="stroke: #000000; stroke-width: 0.8"/>
      </g>
     </g>
     <g id="text_2">
      <!-- 1 -->
      <g transform="translate(243.493511 405.598437) scale(0.1 -0.1)">
       <defs>
        <path id="DejaVuSans-31" d="M 794 531 
L 1825 531 
L 1825 4091 
L 703 3866 
L 703 4441 
L 1819 4666 
L 2450 4666 
L 2450 531 
L 3481 531 
L 3481 0 
L 794 0 
L 794 531 
z
" transform="scale(0.015625)"/>
       </defs>
       <use xlink:href="#DejaVuSans-31"/>
      </g>
     </g>
    </g>
    <g id="xtick_3">
     <g id="line2d_3">
      <g>
       <use xlink:href="#m4d366e0fe0" x="296.209522" y="391" style="stroke: #000000; stroke-width: 0.8"/>
      </g>
     </g>
     <g id="text_3">
      <!-- 2 -->
      <g transform="translate(293.028272 405.598437) scale(0.1 -0.1)">
       <defs>
        <path id="DejaVuSans-32" d="M 1228 531 
L 3431 531 
L 3431 0 
L 469 0 
L 469 531 
Q 828 903 1448 1529 
Q 2069 2156 2228 2338 
Q 2531 2678 2651 2914 
Q 2772 3150 2772 3378 
Q 2772 3750 2511 3984 
Q 2250 4219 1831 4219 
Q 1534 4219 1204 4116 
Q 875 4013 500 3803 
L 500 4441 
Q 881 4594 1212 4672 
Q 1544 4750 1819 4750 
Q 2544 4750 2975 4387 
Q 3406 4025 3406 3419 
Q 3406 3131 3298 2873 
Q 3191 2616 2906 2266 
Q 2828 2175 2409 1742 
Q 1991 1309 1228 531 
z
" transform="scale(0.015625)"/>
       </defs>
       <use xlink:href="#DejaVuSans-32"/>
      </g>
     </g>
    </g>
    <g id="xtick_4">
     <g id="line2d_4">
      <g>
       <use xlink:href="#m4d366e0fe0" x="345.744283" y="391" style="stroke: #000000; stroke-width: 0.8"/>
      </g>
     </g>
     <g id="text_4">
      <!-- 3 -->
      <g transform="translate(342.563033 405.598437) scale(0.1 -0.1)">
       <defs>
        <path id="DejaVuSans-33" d="M 2597 2516 
Q 3050 2419 3304 2112 
Q 3559 1806 3559 1356 
Q 3559 666 3084 287 
Q 2609 -91 1734 -91 
Q 1441 -91 1130 -33 
Q 819 25 488 141 
L 488 750 
Q 750 597 1062 519 
Q 1375 441 1716 441 
Q 2309 441 2620 675 
Q 2931 909 2931 1356 
Q 2931 1769 2642 2001 
Q 2353 2234 1838 2234 
L 1294 2234 
L 1294 2753 
L 1863 2753 
Q 2328 2753 2575 2939 
Q 2822 3125 2822 3475 
Q 2822 3834 2567 4026 
Q 2313 4219 1838 4219 
Q 1578 4219 1281 4162 
Q 984 4106 628 3988 
L 628 4550 
Q 988 4650 1302 4700 
Q 1616 4750 1894 4750 
Q 2613 4750 3031 4423 
Q 3450 4097 3450 3541 
Q 3450 3153 3228 2886 
Q 3006 2619 2597 2516 
z
" transform="scale(0.015625)"/>
       </defs>
       <use xlink:href="#DejaVuSans-33"/>
      </g>
     </g>
    </g>
    <g id="xtick_5">
     <g id="line2d_5">
      <g>
       <use xlink:href="#m4d366e0fe0" x="395.279044" y="391" style="stroke: #000000; stroke-width: 0.8"/>
      </g>
     </g>
     <g id="text_5">
      <!-- 4 -->
      <g transform="translate(392.097794 405.598437) scale(0.1 -0.1)">
       <defs>
        <path id="DejaVuSans-34" d="M 2419 4116 
L 825 1625 
L 2419 1625 
L 2419 4116 
z
M 2253 4666 
L 3047 4666 
L 3047 1625 
L 3713 1625 
L 3713 1100 
L 3047 1100 
L 3047 0 
L 2419 0 
L 2419 1100 
L 313 1100 
L 313 1709 
L 2253 4666 
z
" transform="scale(0.015625)"/>
       </defs>
       <use xlink:href="#DejaVuSans-34"/>
      </g>
     </g>
    </g>
    <g id="xtick_6">
     <g id="line2d_6">
      <g>
       <use xlink:href="#m4d366e0fe0" x="444.813805" y="391" style="stroke: #000000; stroke-width: 0.8"/>
      </g>
     </g>
     <g id="text_6">
      <!-- 5 -->
      <g transform="translate(441.632555 405.598437) scale(0.1 -0.1)">
       <defs>
        <path id="DejaVuSans-35" d="M 691 4666 
L 3169 4666 
L 3169 4134 
L 1269 4134 
L 1269 2991 
Q 1406 3038 1543 3061 
Q 1681 3084 1819 3084 
Q 2600 3084 3056 2656 
Q 3513 2228 3513 1497 
Q 3513 744 3044 326 
Q 2575 -91 1722 -91 
Q 1428 -91 1123 -41 
Q 819 9 494 109 
L 494 744 
Q 775 591 1075 516 
Q 1375 441 1709 441 
Q 2250 441 2565 725 
Q 2881 1009 2881 1497 
Q 2881 1984 2565 2268 
Q 2250 2553 1709 2553 
Q 1456 2553 1204 2497 
Q 953 2441 691 2322 
L 691 4666 
z
" transform="scale(0.015625)"/>
       </defs>
       <use xlink:href="#DejaVuSans-35"/>
      </g>
     </g>
    </g>
    <g id="xtick_7">
     <g id="line2d_7">
      <g>
       <use xlink:href="#m4d366e0fe0" x="494.348566" y="391" style="stroke: #000000; stroke-width: 0.8"/>
      </g>
     </g>
     <g id="text_7">
      <!-- 6 -->
      <g transform="translate(491.167316 405.598437) scale(0.1 -0.1)">
       <defs>
        <path id="DejaVuSans-36" d="M 2113 2584 
Q 1688 2584 1439 2293 
Q 1191 2003 1191 1497 
Q 1191 994 1439 701 
Q 1688 409 2113 409 
Q 2538 409 2786 701 
Q 3034 994 3034 1497 
Q 3034 2003 2786 2293 
Q 2538 2584 2113 2584 
z
M 3366 4563 
L 3366 3988 
Q 3128 4100 2886 4159 
Q 2644 4219 2406 4219 
Q 1781 4219 1451 3797 
Q 1122 3375 1075 2522 
Q 1259 2794 1537 2939 
Q 1816 3084 2150 3084 
Q 2853 3084 3261 2657 
Q 3669 2231 3669 1497 
Q 3669 778 3244 343 
Q 2819 -91 2113 -91 
Q 1303 -91 875 529 
Q 447 1150 447 2328 
Q 447 3434 972 4092 
Q 1497 4750 2381 4750 
Q 2619 4750 2861 4703 
Q 3103 4656 3366 4563 
z
" transform="scale(0.015625)"/>
       </defs>
       <use xlink:href="#DejaVuSans-36"/>
      </g>
     </g>
    </g>
    <g id="xtick_8">
     <g id="line2d_8">
      <g>
       <use xlink:href="#m4d366e0fe0" x="543.883327" y="391" style="stroke: #000000; stroke-width: 0.8"/>
      </g>
     </g>
     <g id="text_8">
      <!-- 7 -->
      <g transform="translate(540.702077 405.598437) scale(0.1 -0.1)">
       <defs>
        <path id="DejaVuSans-37" d="M 525 4666 
L 3525 4666 
L 3525 4397 
L 1831 0 
L 1172 0 
L 2766 4134 
L 525 4134 
L 525 4666 
z
" transform="scale(0.015625)"/>
       </defs>
       <use xlink:href="#DejaVuSans-37"/>
      </g>
     </g>
    </g>
    <g id="text_9">
     <!-- Betweenness -->
     <g transform="translate(347.837187 419.276563) scale(0.1 -0.1)">
      <defs>
       <path id="DejaVuSans-42" d="M 1259 2228 
L 1259 519 
L 2272 519 
Q 2781 519 3026 730 
Q 3272 941 3272 1375 
Q 3272 1813 3026 2020 
Q 2781 2228 2272 2228 
L 1259 2228 
z
M 1259 4147 
L 1259 2741 
L 2194 2741 
Q 2656 2741 2882 2914 
Q 3109 3088 3109 3444 
Q 3109 3797 2882 3972 
Q 2656 4147 2194 4147 
L 1259 4147 
z
M 628 4666 
L 2241 4666 
Q 2963 4666 3353 4366 
Q 3744 4066 3744 3513 
Q 3744 3084 3544 2831 
Q 3344 2578 2956 2516 
Q 3422 2416 3680 2098 
Q 3938 1781 3938 1306 
Q 3938 681 3513 340 
Q 3088 0 2303 0 
L 628 0 
L 628 4666 
z
" transform="scale(0.015625)"/>
       <path id="DejaVuSans-65" d="M 3597 1894 
L 3597 1613 
L 953 1613 
Q 991 1019 1311 708 
Q 1631 397 2203 397 
Q 2534 397 2845 478 
Q 3156 559 3463 722 
L 3463 178 
Q 3153 47 2828 -22 
Q 2503 -91 2169 -91 
Q 1331 -91 842 396 
Q 353 884 353 1716 
Q 353 2575 817 3079 
Q 1281 3584 2069 3584 
Q 2775 3584 3186 3129 
Q 3597 2675 3597 1894 
z
M 3022 2063 
Q 3016 2534 2758 2815 
Q 2500 3097 2075 3097 
Q 1594 3097 1305 2825 
Q 1016 2553 972 2059 
L 3022 2063 
z
" transform="scale(0.015625)"/>
       <path id="DejaVuSans-74" d="M 1172 4494 
L 1172 3500 
L 2356 3500 
L 2356 3053 
L 1172 3053 
L 1172 1153 
Q 1172 725 1289 603 
Q 1406 481 1766 481 
L 2356 481 
L 2356 0 
L 1766 0 
Q 1100 0 847 248 
Q 594 497 594 1153 
L 594 3053 
L 172 3053 
L 172 3500 
L 594 3500 
L 594 4494 
L 1172 4494 
z
" transform="scale(0.015625)"/>
       <path id="DejaVuSans-77" d="M 269 3500 
L 844 3500 
L 1563 769 
L 2278 3500 
L 2956 3500 
L 3675 769 
L 4391 3500 
L 4966 3500 
L 4050 0 
L 3372 0 
L 2619 2869 
L 1863 0 
L 1184 0 
L 269 3500 
z
" transform="scale(0.015625)"/>
       <path id="DejaVuSans-6e" d="M 3513 2113 
L 3513 0 
L 2938 0 
L 2938 2094 
Q 2938 2591 2744 2837 
Q 2550 3084 2163 3084 
Q 1697 3084 1428 2787 
Q 1159 2491 1159 1978 
L 1159 0 
L 581 0 
L 581 3500 
L 1159 3500 
L 1159 2956 
Q 1366 3272 1645 3428 
Q 1925 3584 2291 3584 
Q 2894 3584 3203 3211 
Q 3513 2838 3513 2113 
z
" transform="scale(0.015625)"/>
       <path id="DejaVuSans-73" d="M 2834 3397 
L 2834 2853 
Q 2591 2978 2328 3040 
Q 2066 3103 1784 3103 
Q 1356 3103 1142 2972 
Q 928 2841 928 2578 
Q 928 2378 1081 2264 
Q 1234 2150 1697 2047 
L 1894 2003 
Q 2506 1872 2764 1633 
Q 3022 1394 3022 966 
Q 3022 478 2636 193 
Q 2250 -91 1575 -91 
Q 1294 -91 989 -36 
Q 684 19 347 128 
L 347 722 
Q 666 556 975 473 
Q 1284 391 1588 391 
Q 1994 391 2212 530 
Q 2431 669 2431 922 
Q 2431 1156 2273 1281 
Q 2116 1406 1581 1522 
L 1381 1569 
Q 847 1681 609 1914 
Q 372 2147 372 2553 
Q 372 3047 722 3315 
Q 1072 3584 1716 3584 
Q 2034 3584 2315 3537 
Q 2597 3491 2834 3397 
z
" transform="scale(0.015625)"/>
      </defs>
      <use xlink:href="#DejaVuSans-42"/>
      <use xlink:href="#DejaVuSans-65" x="68.603516"/>
      <use xlink:href="#DejaVuSans-74" x="130.126953"/>
      <use xlink:href="#DejaVuSans-77" x="169.335938"/>
      <use xlink:href="#DejaVuSans-65" x="251.123047"/>
      <use xlink:href="#DejaVuSans-65" x="312.646484"/>
      <use xlink:href="#DejaVuSans-6e" x="374.169922"/>
      <use xlink:href="#DejaVuSans-6e" x="437.548828"/>
      <use xlink:href="#DejaVuSans-65" x="500.927734"/>
      <use xlink:href="#DejaVuSans-73" x="562.451172"/>
      <use xlink:href="#DejaVuSans-73" x="614.550781"/>
     </g>
    </g>
    <g id="text_10">
     <!-- 1e−5 -->
     <g transform="translate(537.942187 418.276563) scale(0.1 -0.1)">
      <defs>
       <path id="DejaVuSans-2212" d="M 678 2272 
L 4684 2272 
L 4684 1741 
L 678 1741 
L 678 2272 
z
" transform="scale(0.015625)"/>
      </defs>
      <use xlink:href="#DejaVuSans-31"/>
      <use xlink:href="#DejaVuSans-65" x="63.623047"/>
      <use xlink:href="#DejaVuSans-2212" x="125.146484"/>
      <use xlink:href="#DejaVuSans-35" x="208.935547"/>
     </g>
    </g>
   </g>
   <g id="matplotlib.axis_2">
    <g id="ytick_1">
     <g id="line2d_9">
      <defs>
       <path id="mfe3b26ed9c" d="M 0 0 
L -3.5 0 
" style="stroke: #000000; stroke-width: 0.8"/>
      </defs>
      <g>
       <use xlink:href="#mfe3b26ed9c" x="197.14" y="360.858887" style="stroke: #000000; stroke-width: 0.8"/>
      </g>
     </g>
     <g id="text_11">
      <!-- @react-aria/toolbar -->
      <g transform="translate(92.90875 364.658106) scale(0.1 -0.1)">
       <defs>
        <path id="DejaVuSans-40" d="M 2381 1678 
Q 2381 1231 2603 976 
Q 2825 722 3213 722 
Q 3597 722 3817 978 
Q 4038 1234 4038 1678 
Q 4038 2116 3813 2373 
Q 3588 2631 3206 2631 
Q 2828 2631 2604 2375 
Q 2381 2119 2381 1678 
z
M 4084 744 
Q 3897 503 3655 389 
Q 3413 275 3091 275 
Q 2553 275 2217 664 
Q 1881 1053 1881 1678 
Q 1881 2303 2218 2693 
Q 2556 3084 3091 3084 
Q 3413 3084 3656 2967 
Q 3900 2850 4084 2613 
L 4084 3022 
L 4531 3022 
L 4531 722 
Q 4988 791 5245 1139 
Q 5503 1488 5503 2041 
Q 5503 2375 5404 2669 
Q 5306 2963 5106 3213 
Q 4781 3622 4314 3839 
Q 3847 4056 3297 4056 
Q 2913 4056 2559 3954 
Q 2206 3853 1906 3653 
Q 1416 3334 1139 2817 
Q 863 2300 863 1697 
Q 863 1200 1042 765 
Q 1222 331 1563 0 
Q 1891 -325 2322 -495 
Q 2753 -666 3244 -666 
Q 3647 -666 4036 -530 
Q 4425 -394 4750 -141 
L 5031 -488 
Q 4641 -791 4180 -952 
Q 3719 -1113 3244 -1113 
Q 2666 -1113 2153 -908 
Q 1641 -703 1241 -313 
Q 841 78 631 592 
Q 422 1106 422 1697 
Q 422 2266 634 2781 
Q 847 3297 1241 3688 
Q 1644 4084 2172 4295 
Q 2700 4506 3291 4506 
Q 3953 4506 4520 4234 
Q 5088 3963 5472 3463 
Q 5706 3156 5829 2797 
Q 5953 2438 5953 2053 
Q 5953 1231 5456 756 
Q 4959 281 4084 263 
L 4084 744 
z
" transform="scale(0.015625)"/>
        <path id="DejaVuSans-72" d="M 2631 2963 
Q 2534 3019 2420 3045 
Q 2306 3072 2169 3072 
Q 1681 3072 1420 2755 
Q 1159 2438 1159 1844 
L 1159 0 
L 581 0 
L 581 3500 
L 1159 3500 
L 1159 2956 
Q 1341 3275 1631 3429 
Q 1922 3584 2338 3584 
Q 2397 3584 2469 3576 
Q 2541 3569 2628 3553 
L 2631 2963 
z
" transform="scale(0.015625)"/>
        <path id="DejaVuSans-61" d="M 2194 1759 
Q 1497 1759 1228 1600 
Q 959 1441 959 1056 
Q 959 750 1161 570 
Q 1363 391 1709 391 
Q 2188 391 2477 730 
Q 2766 1069 2766 1631 
L 2766 1759 
L 2194 1759 
z
M 3341 1997 
L 3341 0 
L 2766 0 
L 2766 531 
Q 2569 213 2275 61 
Q 1981 -91 1556 -91 
Q 1019 -91 701 211 
Q 384 513 384 1019 
Q 384 1609 779 1909 
Q 1175 2209 1959 2209 
L 2766 2209 
L 2766 2266 
Q 2766 2663 2505 2880 
Q 2244 3097 1772 3097 
Q 1472 3097 1187 3025 
Q 903 2953 641 2809 
L 641 3341 
Q 956 3463 1253 3523 
Q 1550 3584 1831 3584 
Q 2591 3584 2966 3190 
Q 3341 2797 3341 1997 
z
" transform="scale(0.015625)"/>
        <path id="DejaVuSans-63" d="M 3122 3366 
L 3122 2828 
Q 2878 2963 2633 3030 
Q 2388 3097 2138 3097 
Q 1578 3097 1268 2742 
Q 959 2388 959 1747 
Q 959 1106 1268 751 
Q 1578 397 2138 397 
Q 2388 397 2633 464 
Q 2878 531 3122 666 
L 3122 134 
Q 2881 22 2623 -34 
Q 2366 -91 2075 -91 
Q 1284 -91 818 406 
Q 353 903 353 1747 
Q 353 2603 823 3093 
Q 1294 3584 2113 3584 
Q 2378 3584 2631 3529 
Q 2884 3475 3122 3366 
z
" transform="scale(0.015625)"/>
        <path id="DejaVuSans-2d" d="M 313 2009 
L 1997 2009 
L 1997 1497 
L 313 1497 
L 313 2009 
z
" transform="scale(0.015625)"/>
        <path id="DejaVuSans-69" d="M 603 3500 
L 1178 3500 
L 1178 0 
L 603 0 
L 603 3500 
z
M 603 4863 
L 1178 4863 
L 1178 4134 
L 603 4134 
L 603 4863 
z
" transform="scale(0.015625)"/>
        <path id="DejaVuSans-2f" d="M 1625 4666 
L 2156 4666 
L 531 -594 
L 0 -594 
L 1625 4666 
z
" transform="scale(0.015625)"/>
        <path id="DejaVuSans-6f" d="M 1959 3097 
Q 1497 3097 1228 2736 
Q 959 2375 959 1747 
Q 959 1119 1226 758 
Q 1494 397 1959 397 
Q 2419 397 2687 759 
Q 2956 1122 2956 1747 
Q 2956 2369 2687 2733 
Q 2419 3097 1959 3097 
z
M 1959 3584 
Q 2709 3584 3137 3096 
Q 3566 2609 3566 1747 
Q 3566 888 3137 398 
Q 2709 -91 1959 -91 
Q 1206 -91 779 398 
Q 353 888 353 1747 
Q 353 2609 779 3096 
Q 1206 3584 1959 3584 
z
" transform="scale(0.015625)"/>
        <path id="DejaVuSans-6c" d="M 603 4863 
L 1178 4863 
L 1178 0 
L 603 0 
L 603 4863 
z
" transform="scale(0.015625)"/>
        <path id="DejaVuSans-62" d="M 3116 1747 
Q 3116 2381 2855 2742 
Q 2594 3103 2138 3103 
Q 1681 3103 1420 2742 
Q 1159 2381 1159 1747 
Q 1159 1113 1420 752 
Q 1681 391 2138 391 
Q 2594 391 2855 752 
Q 3116 1113 3116 1747 
z
M 1159 2969 
Q 1341 3281 1617 3432 
Q 1894 3584 2278 3584 
Q 2916 3584 3314 3078 
Q 3713 2572 3713 1747 
Q 3713 922 3314 415 
Q 2916 -91 2278 -91 
Q 1894 -91 1617 61 
Q 1341 213 1159 525 
L 1159 0 
L 581 0 
L 581 4863 
L 1159 4863 
L 1159 2969 
z
" transform="scale(0.015625)"/>
       </defs>
       <use xlink:href="#DejaVuSans-40"/>
       <use xlink:href="#DejaVuSans-72" x="100"/>
       <use xlink:href="#DejaVuSans-65" x="138.863281"/>
       <use xlink:href="#DejaVuSans-61" x="200.386719"/>
       <use xlink:href="#DejaVuSans-63" x="261.666016"/>
       <use xlink:href="#DejaVuSans-74" x="316.646484"/>
       <use xlink:href="#DejaVuSans-2d" x="355.855469"/>
       <use xlink:href="#DejaVuSans-61" x="391.939453"/>
       <use xlink:href="#DejaVuSans-72" x="453.21875"/>
       <use xlink:href="#DejaVuSans-69" x="494.332031"/>
       <use xlink:href="#DejaVuSans-61" x="522.115234"/>
       <use xlink:href="#DejaVuSans-2f" x="583.394531"/>
       <use xlink:href="#DejaVuSans-74" x="617.085938"/>
       <use xlink:href="#DejaVuSans-6f" x="656.294922"/>
       <use xlink:href="#DejaVuSans-6f" x="717.476562"/>
       <use xlink:href="#DejaVuSans-6c" x="778.658203"/>
       <use xlink:href="#DejaVuSans-62" x="806.441406"/>
       <use xlink:href="#DejaVuSans-61" x="869.917969"/>
       <use xlink:href="#DejaVuSans-72" x="931.197266"/>
      </g>
     </g>
    </g>
    <g id="ytick_2">
     <g id="line2d_10">
      <g>
       <use xlink:href="#mfe3b26ed9c" x="197.14" y="326.992468" style="stroke: #000000; stroke-width: 0.8"/>
      </g>
     </g>
     <g id="text_12">
      <!-- @react-aria/selection -->
      <g transform="translate(83.485313 330.791686) scale(0.1 -0.1)">
       <use xlink:href="#DejaVuSans-40"/>
       <use xlink:href="#DejaVuSans-72" x="100"/>
       <use xlink:href="#DejaVuSans-65" x="138.863281"/>
       <use xlink:href="#DejaVuSans-61" x="200.386719"/>
       <use xlink:href="#DejaVuSans-63" x="261.666016"/>
       <use xlink:href="#DejaVuSans-74" x="316.646484"/>
       <use xlink:href="#DejaVuSans-2d" x="355.855469"/>
       <use xlink:href="#DejaVuSans-61" x="391.939453"/>
       <use xlink:href="#DejaVuSans-72" x="453.21875"/>
       <use xlink:href="#DejaVuSans-69" x="494.332031"/>
       <use xlink:href="#DejaVuSans-61" x="522.115234"/>
       <use xlink:href="#DejaVuSans-2f" x="583.394531"/>
       <use xlink:href="#DejaVuSans-73" x="617.085938"/>
       <use xlink:href="#DejaVuSans-65" x="669.185547"/>
       <use xlink:href="#DejaVuSans-6c" x="730.708984"/>
       <use xlink:href="#DejaVuSans-65" x="758.492188"/>
       <use xlink:href="#DejaVuSans-63" x="820.015625"/>
       <use xlink:href="#DejaVuSans-74" x="874.996094"/>
       <use xlink:href="#DejaVuSans-69" x="914.205078"/>
       <use xlink:href="#DejaVuSans-6f" x="941.988281"/>
       <use xlink:href="#DejaVuSans-6e" x="1003.169922"/>
      </g>
     </g>
    </g>
    <g id="ytick_3">
     <g id="line2d_11">
      <g>
       <use xlink:href="#mfe3b26ed9c" x="197.14" y="293.126048" style="stroke: #000000; stroke-width: 0.8"/>
      </g>
     </g>
     <g id="text_13">
      <!-- @rc-component/trigger -->
      <g transform="translate(73.435313 296.925267) scale(0.1 -0.1)">
       <defs>
        <path id="DejaVuSans-6d" d="M 3328 2828 
Q 3544 3216 3844 3400 
Q 4144 3584 4550 3584 
Q 5097 3584 5394 3201 
Q 5691 2819 5691 2113 
L 5691 0 
L 5113 0 
L 5113 2094 
Q 5113 2597 4934 2840 
Q 4756 3084 4391 3084 
Q 3944 3084 3684 2787 
Q 3425 2491 3425 1978 
L 3425 0 
L 2847 0 
L 2847 2094 
Q 2847 2600 2669 2842 
Q 2491 3084 2119 3084 
Q 1678 3084 1418 2786 
Q 1159 2488 1159 1978 
L 1159 0 
L 581 0 
L 581 3500 
L 1159 3500 
L 1159 2956 
Q 1356 3278 1631 3431 
Q 1906 3584 2284 3584 
Q 2666 3584 2933 3390 
Q 3200 3197 3328 2828 
z
" transform="scale(0.015625)"/>
        <path id="DejaVuSans-70" d="M 1159 525 
L 1159 -1331 
L 581 -1331 
L 581 3500 
L 1159 3500 
L 1159 2969 
Q 1341 3281 1617 3432 
Q 1894 3584 2278 3584 
Q 2916 3584 3314 3078 
Q 3713 2572 3713 1747 
Q 3713 922 3314 415 
Q 2916 -91 2278 -91 
Q 1894 -91 1617 61 
Q 1341 213 1159 525 
z
M 3116 1747 
Q 3116 2381 2855 2742 
Q 2594 3103 2138 3103 
Q 1681 3103 1420 2742 
Q 1159 2381 1159 1747 
Q 1159 1113 1420 752 
Q 1681 391 2138 391 
Q 2594 391 2855 752 
Q 3116 1113 3116 1747 
z
" transform="scale(0.015625)"/>
        <path id="DejaVuSans-67" d="M 2906 1791 
Q 2906 2416 2648 2759 
Q 2391 3103 1925 3103 
Q 1463 3103 1205 2759 
Q 947 2416 947 1791 
Q 947 1169 1205 825 
Q 1463 481 1925 481 
Q 2391 481 2648 825 
Q 2906 1169 2906 1791 
z
M 3481 434 
Q 3481 -459 3084 -895 
Q 2688 -1331 1869 -1331 
Q 1566 -1331 1297 -1286 
Q 1028 -1241 775 -1147 
L 775 -588 
Q 1028 -725 1275 -790 
Q 1522 -856 1778 -856 
Q 2344 -856 2625 -561 
Q 2906 -266 2906 331 
L 2906 616 
Q 2728 306 2450 153 
Q 2172 0 1784 0 
Q 1141 0 747 490 
Q 353 981 353 1791 
Q 353 2603 747 3093 
Q 1141 3584 1784 3584 
Q 2172 3584 2450 3431 
Q 2728 3278 2906 2969 
L 2906 3500 
L 3481 3500 
L 3481 434 
z
" transform="scale(0.015625)"/>
       </defs>
       <use xlink:href="#DejaVuSans-40"/>
       <use xlink:href="#DejaVuSans-72" x="100"/>
       <use xlink:href="#DejaVuSans-63" x="138.863281"/>
       <use xlink:href="#DejaVuSans-2d" x="193.84375"/>
       <use xlink:href="#DejaVuSans-63" x="229.927734"/>
       <use xlink:href="#DejaVuSans-6f" x="284.908203"/>
       <use xlink:href="#DejaVuSans-6d" x="346.089844"/>
       <use xlink:href="#DejaVuSans-70" x="443.501953"/>
       <use xlink:href="#DejaVuSans-6f" x="506.978516"/>
       <use xlink:href="#DejaVuSans-6e" x="568.160156"/>
       <use xlink:href="#DejaVuSans-65" x="631.539062"/>
       <use xlink:href="#DejaVuSans-6e" x="693.0625"/>
       <use xlink:href="#DejaVuSans-74" x="756.441406"/>
       <use xlink:href="#DejaVuSans-2f" x="795.650391"/>
       <use xlink:href="#DejaVuSans-74" x="829.341797"/>
       <use xlink:href="#DejaVuSans-72" x="868.550781"/>
       <use xlink:href="#DejaVuSans-69" x="909.664062"/>
       <use xlink:href="#DejaVuSans-67" x="937.447266"/>
       <use xlink:href="#DejaVuSans-67" x="1000.923828"/>
       <use xlink:href="#DejaVuSans-65" x="1064.400391"/>
       <use xlink:href="#DejaVuSans-72" x="1125.923828"/>
      </g>
     </g>
    </g>
    <g id="ytick_4">
     <g id="line2d_12">
      <g>
       <use xlink:href="#mfe3b26ed9c" x="197.14" y="259.259629" style="stroke: #000000; stroke-width: 0.8"/>
      </g>
     </g>
     <g id="text_14">
      <!-- @griffel/react -->
      <g transform="translate(121.975938 263.058848) scale(0.1 -0.1)">
       <defs>
        <path id="DejaVuSans-66" d="M 2375 4863 
L 2375 4384 
L 1825 4384 
Q 1516 4384 1395 4259 
Q 1275 4134 1275 3809 
L 1275 3500 
L 2222 3500 
L 2222 3053 
L 1275 3053 
L 1275 0 
L 697 0 
L 697 3053 
L 147 3053 
L 147 3500 
L 697 3500 
L 697 3744 
Q 697 4328 969 4595 
Q 1241 4863 1831 4863 
L 2375 4863 
z
" transform="scale(0.015625)"/>
       </defs>
       <use xlink:href="#DejaVuSans-40"/>
       <use xlink:href="#DejaVuSans-67" x="100"/>
       <use xlink:href="#DejaVuSans-72" x="163.476562"/>
       <use xlink:href="#DejaVuSans-69" x="204.589844"/>
       <use xlink:href="#DejaVuSans-66" x="232.373047"/>
       <use xlink:href="#DejaVuSans-66" x="267.578125"/>
       <use xlink:href="#DejaVuSans-65" x="302.783203"/>
       <use xlink:href="#DejaVuSans-6c" x="364.306641"/>
       <use xlink:href="#DejaVuSans-2f" x="392.089844"/>
       <use xlink:href="#DejaVuSans-72" x="425.78125"/>
       <use xlink:href="#DejaVuSans-65" x="464.644531"/>
       <use xlink:href="#DejaVuSans-61" x="526.167969"/>
       <use xlink:href="#DejaVuSans-63" x="587.447266"/>
       <use xlink:href="#DejaVuSans-74" x="642.427734"/>
      </g>
     </g>
    </g>
    <g id="ytick_5">
     <g id="line2d_13">
      <g>
       <use xlink:href="#mfe3b26ed9c" x="197.14" y="225.39321" style="stroke: #000000; stroke-width: 0.8"/>
      </g>
     </g>
     <g id="text_15">
      <!-- @react-native/dev-middleware -->
      <g transform="translate(36.08375 229.192428) scale(0.1 -0.1)">
       <defs>
        <path id="DejaVuSans-76" d="M 191 3500 
L 800 3500 
L 1894 563 
L 2988 3500 
L 3597 3500 
L 2284 0 
L 1503 0 
L 191 3500 
z
" transform="scale(0.015625)"/>
        <path id="DejaVuSans-64" d="M 2906 2969 
L 2906 4863 
L 3481 4863 
L 3481 0 
L 2906 0 
L 2906 525 
Q 2725 213 2448 61 
Q 2172 -91 1784 -91 
Q 1150 -91 751 415 
Q 353 922 353 1747 
Q 353 2572 751 3078 
Q 1150 3584 1784 3584 
Q 2172 3584 2448 3432 
Q 2725 3281 2906 2969 
z
M 947 1747 
Q 947 1113 1208 752 
Q 1469 391 1925 391 
Q 2381 391 2643 752 
Q 2906 1113 2906 1747 
Q 2906 2381 2643 2742 
Q 2381 3103 1925 3103 
Q 1469 3103 1208 2742 
Q 947 2381 947 1747 
z
" transform="scale(0.015625)"/>
       </defs>
       <use xlink:href="#DejaVuSans-40"/>
       <use xlink:href="#DejaVuSans-72" x="100"/>
       <use xlink:href="#DejaVuSans-65" x="138.863281"/>
       <use xlink:href="#DejaVuSans-61" x="200.386719"/>
       <use xlink:href="#DejaVuSans-63" x="261.666016"/>
       <use xlink:href="#DejaVuSans-74" x="316.646484"/>
       <use xlink:href="#DejaVuSans-2d" x="355.855469"/>
       <use xlink:href="#DejaVuSans-6e" x="391.939453"/>
       <use xlink:href="#DejaVuSans-61" x="455.318359"/>
       <use xlink:href="#DejaVuSans-74" x="516.597656"/>
       <use xlink:href="#DejaVuSans-69" x="555.806641"/>
       <use xlink:href="#DejaVuSans-76" x="583.589844"/>
       <use xlink:href="#DejaVuSans-65" x="642.769531"/>
       <use xlink:href="#DejaVuSans-2f" x="704.292969"/>
       <use xlink:href="#DejaVuSans-64" x="737.984375"/>
       <use xlink:href="#DejaVuSans-65" x="801.460938"/>
       <use xlink:href="#DejaVuSans-76" x="862.984375"/>
       <use xlink:href="#DejaVuSans-2d" x="919.539062"/>
       <use xlink:href="#DejaVuSans-6d" x="955.623047"/>
       <use xlink:href="#DejaVuSans-69" x="1053.035156"/>
       <use xlink:href="#DejaVuSans-64" x="1080.818359"/>
       <use xlink:href="#DejaVuSans-64" x="1144.294922"/>
       <use xlink:href="#DejaVuSans-6c" x="1207.771484"/>
       <use xlink:href="#DejaVuSans-65" x="1235.554688"/>
       <use xlink:href="#DejaVuSans-77" x="1297.078125"/>
       <use xlink:href="#DejaVuSans-61" x="1378.865234"/>
       <use xlink:href="#DejaVuSans-72" x="1440.144531"/>
       <use xlink:href="#DejaVuSans-65" x="1479.007812"/>
      </g>
     </g>
    </g>
    <g id="ytick_6">
     <g id="line2d_14">
      <g>
       <use xlink:href="#mfe3b26ed9c" x="197.14" y="191.52679" style="stroke: #000000; stroke-width: 0.8"/>
      </g>
     </g>
     <g id="text_16">
      <!-- @react-aria/i18n -->
      <g transform="translate(106.591563 195.326009) scale(0.1 -0.1)">
       <defs>
        <path id="DejaVuSans-38" d="M 2034 2216 
Q 1584 2216 1326 1975 
Q 1069 1734 1069 1313 
Q 1069 891 1326 650 
Q 1584 409 2034 409 
Q 2484 409 2743 651 
Q 3003 894 3003 1313 
Q 3003 1734 2745 1975 
Q 2488 2216 2034 2216 
z
M 1403 2484 
Q 997 2584 770 2862 
Q 544 3141 544 3541 
Q 544 4100 942 4425 
Q 1341 4750 2034 4750 
Q 2731 4750 3128 4425 
Q 3525 4100 3525 3541 
Q 3525 3141 3298 2862 
Q 3072 2584 2669 2484 
Q 3125 2378 3379 2068 
Q 3634 1759 3634 1313 
Q 3634 634 3220 271 
Q 2806 -91 2034 -91 
Q 1263 -91 848 271 
Q 434 634 434 1313 
Q 434 1759 690 2068 
Q 947 2378 1403 2484 
z
M 1172 3481 
Q 1172 3119 1398 2916 
Q 1625 2713 2034 2713 
Q 2441 2713 2670 2916 
Q 2900 3119 2900 3481 
Q 2900 3844 2670 4047 
Q 2441 4250 2034 4250 
Q 1625 4250 1398 4047 
Q 1172 3844 1172 3481 
z
" transform="scale(0.015625)"/>
       </defs>
       <use xlink:href="#DejaVuSans-40"/>
       <use xlink:href="#DejaVuSans-72" x="100"/>
       <use xlink:href="#DejaVuSans-65" x="138.863281"/>
       <use xlink:href="#DejaVuSans-61" x="200.386719"/>
       <use xlink:href="#DejaVuSans-63" x="261.666016"/>
       <use xlink:href="#DejaVuSans-74" x="316.646484"/>
       <use xlink:href="#DejaVuSans-2d" x="355.855469"/>
       <use xlink:href="#DejaVuSans-61" x="391.939453"/>
       <use xlink:href="#DejaVuSans-72" x="453.21875"/>
       <use xlink:href="#DejaVuSans-69" x="494.332031"/>
       <use xlink:href="#DejaVuSans-61" x="522.115234"/>
       <use xlink:href="#DejaVuSans-2f" x="583.394531"/>
       <use xlink:href="#DejaVuSans-69" x="617.085938"/>
       <use xlink:href="#DejaVuSans-31" x="644.869141"/>
       <use xlink:href="#DejaVuSans-38" x="708.492188"/>
       <use xlink:href="#DejaVuSans-6e" x="772.115234"/>
      </g>
     </g>
    </g>
    <g id="ytick_7">
     <g id="line2d_15">
      <g>
       <use xlink:href="#mfe3b26ed9c" x="197.14" y="157.660371" style="stroke: #000000; stroke-width: 0.8"/>
      </g>
     </g>
     <g id="text_17">
      <!-- @react-native/community-cli-plugin -->
      <g transform="translate(10.9275 161.45959) scale(0.1 -0.1)">
       <defs>
        <path id="DejaVuSans-75" d="M 544 1381 
L 544 3500 
L 1119 3500 
L 1119 1403 
Q 1119 906 1312 657 
Q 1506 409 1894 409 
Q 2359 409 2629 706 
Q 2900 1003 2900 1516 
L 2900 3500 
L 3475 3500 
L 3475 0 
L 2900 0 
L 2900 538 
Q 2691 219 2414 64 
Q 2138 -91 1772 -91 
Q 1169 -91 856 284 
Q 544 659 544 1381 
z
M 1991 3584 
L 1991 3584 
z
" transform="scale(0.015625)"/>
        <path id="DejaVuSans-79" d="M 2059 -325 
Q 1816 -950 1584 -1140 
Q 1353 -1331 966 -1331 
L 506 -1331 
L 506 -850 
L 844 -850 
Q 1081 -850 1212 -737 
Q 1344 -625 1503 -206 
L 1606 56 
L 191 3500 
L 800 3500 
L 1894 763 
L 2988 3500 
L 3597 3500 
L 2059 -325 
z
" transform="scale(0.015625)"/>
       </defs>
       <use xlink:href="#DejaVuSans-40"/>
       <use xlink:href="#DejaVuSans-72" x="100"/>
       <use xlink:href="#DejaVuSans-65" x="138.863281"/>
       <use xlink:href="#DejaVuSans-61" x="200.386719"/>
       <use xlink:href="#DejaVuSans-63" x="261.666016"/>
       <use xlink:href="#DejaVuSans-74" x="316.646484"/>
       <use xlink:href="#DejaVuSans-2d" x="355.855469"/>
       <use xlink:href="#DejaVuSans-6e" x="391.939453"/>
       <use xlink:href="#DejaVuSans-61" x="455.318359"/>
       <use xlink:href="#DejaVuSans-74" x="516.597656"/>
       <use xlink:href="#DejaVuSans-69" x="555.806641"/>
       <use xlink:href="#DejaVuSans-76" x="583.589844"/>
       <use xlink:href="#DejaVuSans-65" x="642.769531"/>
       <use xlink:href="#DejaVuSans-2f" x="704.292969"/>
       <use xlink:href="#DejaVuSans-63" x="737.984375"/>
       <use xlink:href="#DejaVuSans-6f" x="792.964844"/>
       <use xlink:href="#DejaVuSans-6d" x="854.146484"/>
       <use xlink:href="#DejaVuSans-6d" x="951.558594"/>
       <use xlink:href="#DejaVuSans-75" x="1048.970703"/>
       <use xlink:href="#DejaVuSans-6e" x="1112.349609"/>
       <use xlink:href="#DejaVuSans-69" x="1175.728516"/>
       <use xlink:href="#DejaVuSans-74" x="1203.511719"/>
       <use xlink:href="#DejaVuSans-79" x="1242.720703"/>
       <use xlink:href="#DejaVuSans-2d" x="1300.150391"/>
       <use xlink:href="#DejaVuSans-63" x="1336.234375"/>
       <use xlink:href="#DejaVuSans-6c" x="1391.214844"/>
       <use xlink:href="#DejaVuSans-69" x="1418.998047"/>
       <use xlink:href="#DejaVuSans-2d" x="1446.78125"/>
       <use xlink:href="#DejaVuSans-70" x="1482.865234"/>
       <use xlink:href="#DejaVuSans-6c" x="1546.341797"/>
       <use xlink:href="#DejaVuSans-75" x="1574.125"/>
       <use xlink:href="#DejaVuSans-67" x="1637.503906"/>
       <use xlink:href="#DejaVuSans-69" x="1700.980469"/>
       <use xlink:href="#DejaVuSans-6e" x="1728.763672"/>
      </g>
     </g>
    </g>
    <g id="ytick_8">
     <g id="line2d_16">
      <g>
       <use xlink:href="#mfe3b26ed9c" x="197.14" y="123.793952" style="stroke: #000000; stroke-width: 0.8"/>
      </g>
     </g>
     <g id="text_18">
      <!-- @react-aria/utils -->
      <g transform="translate(107.40875 127.593171) scale(0.1 -0.1)">
       <use xlink:href="#DejaVuSans-40"/>
       <use xlink:href="#DejaVuSans-72" x="100"/>
       <use xlink:href="#DejaVuSans-65" x="138.863281"/>
       <use xlink:href="#DejaVuSans-61" x="200.386719"/>
       <use xlink:href="#DejaVuSans-63" x="261.666016"/>
       <use xlink:href="#DejaVuSans-74" x="316.646484"/>
       <use xlink:href="#DejaVuSans-2d" x="355.855469"/>
       <use xlink:href="#DejaVuSans-61" x="391.939453"/>
       <use xlink:href="#DejaVuSans-72" x="453.21875"/>
       <use xlink:href="#DejaVuSans-69" x="494.332031"/>
       <use xlink:href="#DejaVuSans-61" x="522.115234"/>
       <use xlink:href="#DejaVuSans-2f" x="583.394531"/>
       <use xlink:href="#DejaVuSans-75" x="617.085938"/>
       <use xlink:href="#DejaVuSans-74" x="680.464844"/>
       <use xlink:href="#DejaVuSans-69" x="719.673828"/>
       <use xlink:href="#DejaVuSans-6c" x="747.457031"/>
       <use xlink:href="#DejaVuSans-73" x="775.240234"/>
      </g>
     </g>
    </g>
    <g id="ytick_9">
     <g id="line2d_17">
      <g>
       <use xlink:href="#mfe3b26ed9c" x="197.14" y="89.927532" style="stroke: #000000; stroke-width: 0.8"/>
      </g>
     </g>
     <g id="text_19">
      <!-- @react-native-community/cli -->
      <g transform="translate(45.288438 93.726751) scale(0.1 -0.1)">
       <use xlink:href="#DejaVuSans-40"/>
       <use xlink:href="#DejaVuSans-72" x="100"/>
       <use xlink:href="#DejaVuSans-65" x="138.863281"/>
       <use xlink:href="#DejaVuSans-61" x="200.386719"/>
       <use xlink:href="#DejaVuSans-63" x="261.666016"/>
       <use xlink:href="#DejaVuSans-74" x="316.646484"/>
       <use xlink:href="#DejaVuSans-2d" x="355.855469"/>
       <use xlink:href="#DejaVuSans-6e" x="391.939453"/>
       <use xlink:href="#DejaVuSans-61" x="455.318359"/>
       <use xlink:href="#DejaVuSans-74" x="516.597656"/>
       <use xlink:href="#DejaVuSans-69" x="555.806641"/>
       <use xlink:href="#DejaVuSans-76" x="583.589844"/>
       <use xlink:href="#DejaVuSans-65" x="642.769531"/>
       <use xlink:href="#DejaVuSans-2d" x="704.292969"/>
       <use xlink:href="#DejaVuSans-63" x="740.376953"/>
       <use xlink:href="#DejaVuSans-6f" x="795.357422"/>
       <use xlink:href="#DejaVuSans-6d" x="856.539062"/>
       <use xlink:href="#DejaVuSans-6d" x="953.951172"/>
       <use xlink:href="#DejaVuSans-75" x="1051.363281"/>
       <use xlink:href="#DejaVuSans-6e" x="1114.742188"/>
       <use xlink:href="#DejaVuSans-69" x="1178.121094"/>
       <use xlink:href="#DejaVuSans-74" x="1205.904297"/>
       <use xlink:href="#DejaVuSans-79" x="1245.113281"/>
       <use xlink:href="#DejaVuSans-2f" x="1304.292969"/>
       <use xlink:href="#DejaVuSans-63" x="1337.984375"/>
       <use xlink:href="#DejaVuSans-6c" x="1392.964844"/>
       <use xlink:href="#DejaVuSans-69" x="1420.748047"/>
      </g>
     </g>
    </g>
    <g id="ytick_10">
     <g id="line2d_18">
      <g>
       <use xlink:href="#mfe3b26ed9c" x="197.14" y="56.061113" style="stroke: #000000; stroke-width: 0.8"/>
      </g>
     </g>
     <g id="text_20">
      <!-- prop-types -->
      <g transform="translate(136.280625 59.860332) scale(0.1 -0.1)">
       <use xlink:href="#DejaVuSans-70"/>
       <use xlink:href="#DejaVuSans-72" x="63.476562"/>
       <use xlink:href="#DejaVuSans-6f" x="102.339844"/>
       <use xlink:href="#DejaVuSans-70" x="163.521484"/>
       <use xlink:href="#DejaVuSans-2d" x="226.998047"/>
       <use xlink:href="#DejaVuSans-74" x="263.082031"/>
       <use xlink:href="#DejaVuSans-79" x="302.291016"/>
       <use xlink:href="#DejaVuSans-70" x="361.470703"/>
       <use xlink:href="#DejaVuSans-65" x="424.947266"/>
       <use xlink:href="#DejaVuSans-73" x="486.470703"/>
      </g>
     </g>
    </g>
   </g>
   <g id="patch_13">
    <path d="M 197.14 391 
L 197.14 25.92 
" style="fill: none; stroke: #000000; stroke-width: 0.8; stroke-linejoin: miter; stroke-linecap: square"/>
   </g>
   <g id="patch_14">
    <path d="M 565.2 391 
L 565.2 25.92 
" style="fill: none; stroke: #000000; stroke-width: 0.8; stroke-linejoin: miter; stroke-linecap: square"/>
   </g>
   <g id="patch_15">
    <path d="M 197.14 391 
L 565.2 391 
" style="fill: none; stroke: #000000; stroke-width: 0.8; stroke-linejoin: miter; stroke-linecap: square"/>
   </g>
   <g id="patch_16">
    <path d="M 197.14 25.92 
L 565.2 25.92 
" style="fill: none; stroke: #000000; stroke-width: 0.8; stroke-linejoin: miter; stroke-linecap: square"/>
   </g>
   <g id="text_21">
    <!-- Betweenness İlk 10 -->
    <g transform="translate(322.810625 19.92) scale(0.12 -0.12)">
     <defs>
      <path id="DejaVuSans-20" transform="scale(0.015625)"/>
      <path id="DejaVuSans-130" d="M 628 4666 
L 1259 4666 
L 1259 0 
L 628 0 
L 628 4666 
z
M 625 5836 
L 1263 5836 
L 1263 5196 
L 625 5196 
L 625 5836 
z
" transform="scale(0.015625)"/>
      <path id="DejaVuSans-6b" d="M 581 4863 
L 1159 4863 
L 1159 1991 
L 2875 3500 
L 3609 3500 
L 1753 1863 
L 3688 0 
L 2938 0 
L 1159 1709 
L 1159 0 
L 581 0 
L 581 4863 
z
" transform="scale(0.015625)"/>
     </defs>
     <use xlink:href="#DejaVuSans-42"/>
     <use xlink:href="#DejaVuSans-65" x="68.603516"/>
     <use xlink:href="#DejaVuSans-74" x="130.126953"/>
     <use xlink:href="#DejaVuSans-77" x="169.335938"/>
     <use xlink:href="#DejaVuSans-65" x="251.123047"/>
     <use xlink:href="#DejaVuSans-65" x="312.646484"/>
     <use xlink:href="#DejaVuSans-6e" x="374.169922"/>
     <use xlink:href="#DejaVuSans-6e" x="437.548828"/>
     <use xlink:href="#DejaVuSans-65" x="500.927734"/>
     <use xlink:href="#DejaVuSans-73" x="562.451172"/>
     <use xlink:href="#DejaVuSans-73" x="614.550781"/>
     <use xlink:href="#DejaVuSans-20" x="666.650391"/>
     <use xlink:href="#DejaVuSans-130" x="698.4375"/>
     <use xlink:href="#DejaVuSans-6c" x="727.929688"/>
     <use xlink:href="#DejaVuSans-6b" x="755.712891"/>
     <use xlink:href="#DejaVuSans-20" x="813.623047"/>
     <use xlink:href="#DejaVuSans-31" x="845.410156"/>
     <use xlink:href="#DejaVuSans-30" x="909.033203"/>
    </g>
   </g>
  </g>
 </g>
 <defs>
  <clipPath id="pa7b47a47b6">
   <rect x="197.14" y="25.92" width="368.06" height="365.08"/>
  </clipPath>
 </defs>
</svg>
